<svg xmlns="http://www.w3.org/2000/svg" xmlns:v="https://svgstorm.com"
viewBox = "0 0 1254 435"
width="1254"
height="435">
<g fill="None" fill-opacity="0.0" stroke="#FEFEFE" stroke-opacity="1.00" stroke-width="0.3"><path d="
M 0.00 435.00 
L 1254.00 435.00
L 1254.00 0.00
L 0.00 0.00
L 0.00 435.00
M 816.00 300.00 
C 812.06 300.38 807.98 300.82 804.00 300.00
C 782.23 295.49 791.31 272.97 794.00 257.00 C 796.68 241.02 801.10 219.78 804.00 203.00 C 806.90 186.21 814.33 167.43 815.00 150.00
C 815.24 143.63 815.32 136.65 816.00 131.00
C 816.31 115.45 825.70 105.95 841.00 107.00 C 856.30 108.05 872.06 103.71 875.00 122.00
C 881.57 116.55 887.22 109.10 895.68 105.68 C 904.14 102.26 920.71 105.99 922.00 95.00 C 923.29 84.00 927.32 76.27 929.98 65.98 C 932.63 55.68 936.28 46.04 936.00 35.00 C 935.71 23.96 942.73 15.94 954.00 16.00 C 965.27 16.06 975.73 11.15 987.01 13.99 C 998.28 16.83 1001.27 27.90 997.22 37.22 C 993.17 46.54 992.13 55.56 987.07 64.07 C 982.02 72.58 978.13 86.64 989.07 83.07 C 1000.01 79.51 1011.80 78.52 1016.92 88.08 C 1022.05 97.63 1015.56 109.26 1011.75 117.75 C 1007.93 126.23 998.81 131.77 990.00 133.00 C 981.18 134.23 968.27 135.00 964.70 144.70 C 961.12 154.39 959.35 163.91 957.07 174.07 C 954.79 184.23 950.67 193.19 950.00 204.00 C 949.34 214.82 942.02 223.09 944.00 235.00 C 945.98 246.91 958.74 237.58 967.67 235.67 C 976.60 233.77 983.09 246.56 983.00 256.00 C 982.91 265.44 978.13 274.58 969.30 279.30 C 960.48 284.02 953.84 288.65 943.78 290.78 C 933.72 292.90 920.83 294.31 910.78 291.22 C 900.72 288.14 895.23 282.45 893.02 271.98 C 890.81 261.50 892.53 248.32 893.78 237.78 C 895.02 227.24 897.26 216.86 899.78 206.78 C 902.30 196.70 903.64 186.72 906.93 176.93 C 910.21 167.13 913.03 157.18 915.00 147.00
C 894.75 153.10 882.73 168.84 869.08 185.08 C 855.44 201.33 852.28 226.97 846.68 246.68 C 841.08 266.38 847.48 303.22 816.00 300.00
M 1159.00 18.00 
C 1176.33 19.68 1192.28 27.73 1206.25 38.75 C 1220.22 49.77 1228.53 62.21 1235.31 78.69 C 1242.08 95.17 1242.27 122.40 1239.00 140.00 C 1235.73 157.61 1229.43 174.99 1220.70 189.69 C 1211.97 204.40 1204.55 219.38 1193.75 231.75 C 1182.95 244.11 1175.02 260.04 1163.70 270.70 C 1152.38 281.35 1143.03 298.40 1131.75 306.75 C 1120.48 315.11 1108.17 342.24 1093.26 332.74 C 1078.35 323.24 1079.70 300.20 1071.68 285.32 C 1063.66 270.44 1061.69 250.29 1055.68 233.32 C 1049.67 216.36 1046.57 194.67 1044.01 175.99 C 1041.45 157.32 1042.29 129.14 1046.33 111.33 C 1050.37 93.52 1056.87 78.50 1066.92 63.92 C 1076.97 49.34 1087.72 39.59 1103.08 31.08 C 1118.43 22.56 1140.40 16.20 1159.00 18.00
M 443.00 312.00 
C 440.26 315.21 437.36 318.50 434.00 321.00
C 424.54 328.04 416.73 333.41 404.99 335.99 C 393.26 338.57 377.46 335.44 366.78 331.22 C 356.09 327.00 345.27 321.62 344.00 309.00 C 342.74 296.38 349.33 285.34 354.75 274.75 C 360.18 264.16 378.25 263.14 382.75 274.25 C 387.26 285.36 400.05 294.18 406.30 282.30 C 412.56 270.42 395.39 265.69 389.30 257.70 C 383.22 249.71 373.02 242.75 370.08 231.92 C 367.13 221.10 369.40 206.01 373.32 195.32 C 377.24 184.63 381.70 175.19 389.75 166.75 C 397.81 158.31 405.52 152.61 416.07 148.07 C 426.63 143.54 444.00 142.56 455.07 145.93 C 466.14 149.29 477.82 151.96 480.98 165.02 C 484.13 178.09 480.30 190.49 476.67 203.67 C 473.05 216.86 461.37 219.68 447.00 219.00 C 432.63 218.32 430.51 202.74 435.00 190.00
C 413.28 195.44 420.89 221.41 433.77 233.23 C 446.65 245.05 456.26 263.21 458.00 280.00
C 466.84 257.43 475.90 231.88 485.98 209.98 C 496.05 188.07 503.60 160.95 514.32 140.32 C 525.05 119.69 526.73 85.67 549.22 76.22 C 571.71 66.78 616.49 72.53 613.22 102.22 C 609.95 131.91 609.31 163.89 607.00 194.00 C 604.69 224.11 601.02 256.27 602.00 286.00
C 603.85 269.40 608.79 254.11 611.78 237.78 C 614.76 221.45 619.19 205.37 621.93 188.93 C 624.66 172.49 630.80 158.02 631.98 140.98 C 633.15 123.93 642.72 109.10 641.00 91.00 C 639.28 72.90 647.96 58.22 666.00 58.00 C 684.04 57.78 702.63 61.89 703.00 80.00 C 703.37 98.11 693.38 108.87 690.22 125.22 C 687.06 141.58 681.42 156.06 678.01 172.01 C 674.59 187.95 671.18 203.54 667.07 219.07 C 662.97 234.60 663.40 254.08 657.68 268.68 C 651.96 283.28 656.01 303.19 644.92 313.92 C 633.83 324.64 609.48 316.65 603.00 305.00
C 601.33 312.01 597.51 327.79 586.78 327.78 C 576.04 327.77 562.94 329.75 555.75 320.25 C 548.56 310.75 548.00 301.21 550.00 287.00 C 552.00 272.79 537.75 277.63 526.00 278.00 C 514.25 278.37 507.81 284.66 504.68 295.68 C 501.54 306.69 500.52 314.74 494.70 324.70 C 488.87 334.65 474.66 332.54 465.78 329.22 C 456.90 325.90 445.22 319.58 447.00 308.00
C 445.43 308.96 443.75 310.32 443.00 312.00
M 226.00 188.00 
C 223.24 191.23 220.30 194.39 217.00 197.00
C 210.09 202.46 203.24 208.15 196.00 213.00
C 227.08 218.86 231.56 255.87 220.23 279.23 C 208.90 302.59 194.76 322.08 172.75 336.75 C 150.75 351.43 123.80 361.85 98.99 367.99 C 74.19 374.13 30.37 388.87 26.00 352.00
C 25.49 348.85 25.50 346.09 26.00 343.00
C 26.69 330.34 35.89 317.15 50.00 318.00
C 59.99 265.32 77.79 214.80 91.00 163.00
C 60.10 168.57 64.07 117.34 88.02 109.02 C 111.98 100.71 142.94 93.90 169.00 92.00 C 195.06 90.10 223.30 93.77 238.75 117.25 C 254.20 140.73 241.84 168.73 226.00 188.00
M 770.00 119.00 
C 783.43 120.92 795.50 126.60 802.30 139.70 C 809.11 152.79 807.02 171.43 803.22 185.22 C 799.43 199.01 792.22 208.30 783.23 219.23 C 774.24 230.16 761.15 234.03 749.78 239.78 C 738.40 245.52 711.15 238.71 714.00 257.00 C 716.85 275.29 736.66 266.10 746.70 259.70 C 756.74 253.30 772.67 242.29 782.75 254.25 C 792.83 266.21 788.81 281.63 776.75 289.75 C 764.69 297.88 755.41 303.91 741.93 307.93 C 728.45 311.95 709.04 316.11 695.98 310.02 C 682.91 303.94 673.64 296.69 669.22 282.78 C 664.81 268.86 667.09 246.49 667.99 231.99 C 668.90 217.50 674.74 204.00 680.31 191.31 C 685.88 178.61 693.05 168.94 700.77 157.77 C 708.49 146.60 715.79 138.31 727.08 130.08 C 738.38 121.86 755.13 116.88 770.00 119.00
M 290.00 331.00 
C 282.96 335.53 278.00 341.28 270.31 345.31 C 262.61 349.33 250.10 352.35 241.78 348.22 C 233.45 344.10 228.21 339.97 222.70 332.30 C 217.19 324.64 216.70 312.33 218.99 302.99 C 221.28 293.65 222.74 283.35 224.98 273.98 C 227.21 264.60 229.31 255.50 231.00 246.00 C 232.68 236.49 236.67 227.60 237.99 217.99 C 239.31 208.39 244.39 199.78 244.98 189.98 C 245.56 180.17 248.44 171.81 258.22 168.22 C 268.01 164.64 278.29 164.64 288.07 166.93 C 297.85 169.22 303.04 178.07 300.22 187.22 C 297.40 196.37 294.42 205.46 292.22 214.22 C 290.02 222.99 285.99 232.96 284.02 241.02 C 282.06 249.09 275.93 260.27 275.22 267.22 C 274.52 274.17 264.43 290.97 272.03 292.97 C 279.63 294.97 285.04 282.28 290.75 277.75 C 296.47 273.22 300.12 261.81 301.98 253.98 C 303.83 246.15 305.98 234.35 308.98 225.98 C 311.97 217.60 311.90 206.40 315.98 197.98 C 320.05 189.55 320.21 178.80 322.93 169.93 C 325.64 161.05 335.68 156.28 345.00 158.00 C 354.32 159.72 364.74 158.32 372.75 165.25 C 380.75 172.19 376.92 181.82 373.08 190.08 C 369.23 198.33 368.91 208.37 364.68 216.68 C 360.45 224.99 360.84 234.15 356.68 242.68 C 352.51 251.20 352.73 261.15 349.02 270.02 C 345.32 278.90 344.64 288.03 341.22 297.22 C 337.81 306.42 337.00 317.03 336.07 327.07 C 335.15 337.12 324.03 341.76 315.00 341.00 C 305.97 340.24 291.04 343.92 290.00 331.00
M 1095.00 413.00 
C 1091.75 413.67 1089.16 413.57 1086.00 413.00
C 1049.32 410.50 1051.98 344.81 1090.00 345.00 C 1128.03 345.19 1131.62 405.42 1095.00 413.00 Z"/>
</g>
<g fill="None" fill-opacity="0.0" stroke="#000000" stroke-opacity="1.00" stroke-width="0.3"><path d="
M 816.00 131.00 
C 815.87 137.41 815.81 144.32 815.00 150.00
C 814.33 167.43 806.90 186.21 804.00 203.00 C 801.10 219.78 796.68 241.02 794.00 257.00 C 791.31 272.97 782.23 295.49 804.00 300.00
C 807.93 300.36 812.06 300.00 816.00 300.00
C 847.48 303.22 841.08 266.38 846.68 246.68 C 852.28 226.97 855.44 201.33 869.08 185.08 C 882.73 168.84 894.75 153.10 915.00 147.00
C 913.03 157.18 910.21 167.13 906.93 176.93 C 903.64 186.72 902.30 196.70 899.78 206.78 C 897.26 216.86 895.02 227.24 893.78 237.78 C 892.53 248.32 890.81 261.50 893.02 271.98 C 895.23 282.45 900.72 288.14 910.78 291.22 C 920.83 294.31 933.72 292.90 943.78 290.78 C 953.84 288.65 960.48 284.02 969.30 279.30 C 978.13 274.58 982.91 265.44 983.00 256.00 C 983.09 246.56 976.60 233.77 967.67 235.67 C 958.74 237.58 945.98 246.91 944.00 235.00 C 942.02 223.09 949.34 214.82 950.00 204.00 C 950.67 193.19 954.79 184.23 957.07 174.07 C 959.35 163.91 961.12 154.39 964.70 144.70 C 968.27 135.00 981.18 134.23 990.00 133.00 C 998.81 131.77 1007.93 126.23 1011.75 117.75 C 1015.56 109.26 1022.05 97.63 1016.92 88.08 C 1011.80 78.52 1000.01 79.51 989.07 83.07 C 978.13 86.64 982.02 72.58 987.07 64.07 C 992.13 55.56 993.17 46.54 997.22 37.22 C 1001.27 27.90 998.28 16.83 987.01 13.99 C 975.73 11.15 965.27 16.06 954.00 16.00 C 942.73 15.94 935.71 23.96 936.00 35.00 C 936.28 46.04 932.63 55.68 929.98 65.98 C 927.32 76.27 923.29 84.00 922.00 95.00 C 920.71 105.99 904.14 102.26 895.68 105.68 C 887.22 109.10 881.57 116.55 875.00 122.00
C 872.06 103.71 856.30 108.05 841.00 107.00 C 825.70 105.95 816.31 115.45 816.00 131.00
M 921.00 142.00 
C 908.75 141.53 897.89 149.47 889.25 157.25 C 880.60 165.03 873.11 171.83 866.25 181.25 C 859.39 190.67 854.08 201.08 850.22 212.22 C 846.36 223.37 846.04 239.29 841.02 250.02 C 836.01 260.76 841.58 281.07 833.75 289.75 C 825.91 298.42 804.64 301.18 796.75 291.25 C 788.87 281.32 798.91 264.25 799.00 252.00 C 799.09 239.75 805.72 226.03 806.93 212.93 C 808.14 199.83 813.24 187.91 814.99 173.99 C 816.75 160.08 822.32 148.11 820.00 132.00 C 817.68 115.89 832.21 110.64 846.00 111.00 C 859.79 111.36 877.52 113.50 869.00 132.00
C 877.34 133.47 878.95 122.51 887.25 116.25 C 895.54 109.99 904.04 106.44 916.00 107.00 C 927.96 107.56 925.96 91.20 929.78 82.78 C 933.59 74.36 934.79 60.65 938.00 52.00 C 941.20 43.35 936.31 26.81 946.08 22.08 C 955.85 17.36 967.66 19.91 979.00 17.00 C 990.35 14.09 998.68 29.02 992.68 37.68 C 986.67 46.34 987.97 57.07 981.69 64.69 C 975.42 72.32 975.28 90.91 985.67 88.67 C 996.06 86.43 1012.96 81.94 1014.00 94.00 C 1015.03 106.06 1010.34 113.37 1003.75 121.75 C 997.15 130.12 985.68 129.62 975.78 131.78 C 965.88 133.93 958.84 142.13 957.67 152.67 C 956.50 163.21 952.94 173.17 950.07 183.07 C 947.21 192.98 945.69 204.44 943.07 214.07 C 940.46 223.71 936.66 238.03 945.08 244.92 C 953.50 251.81 967.28 233.74 974.25 241.75 C 981.21 249.77 980.31 262.25 973.75 269.75 C 967.19 277.26 958.76 281.02 949.32 284.32 C 939.89 287.62 927.36 289.59 916.93 288.07 C 906.50 286.55 898.35 281.26 897.01 269.99 C 895.67 258.72 896.20 245.01 898.00 234.00 C 899.80 222.99 903.04 213.63 904.98 202.98 C 906.92 192.32 909.88 183.15 912.93 172.93 C 915.97 162.70 918.74 152.46 921.00 142.00 Z"/>
</g>
<g fill="None" fill-opacity="0.0" stroke="#BF1F1F" stroke-opacity="1.00" stroke-width="0.3"><path d="
M 921.00 142.00 
C 918.74 152.46 915.97 162.70 912.93 172.93 C 909.88 183.15 906.92 192.32 904.98 202.98 C 903.04 213.63 899.80 222.99 898.00 234.00 C 896.20 245.01 895.67 258.72 897.01 269.99 C 898.35 281.26 906.50 286.55 916.93 288.07 C 927.36 289.59 939.89 287.62 949.32 284.32 C 958.76 281.02 967.19 277.26 973.75 269.75 C 980.31 262.25 981.21 249.77 974.25 241.75 C 967.28 233.74 953.50 251.81 945.08 244.92 C 936.66 238.03 940.46 223.71 943.07 214.07 C 945.69 204.44 947.21 192.98 950.07 183.07 C 952.94 173.17 956.50 163.21 957.67 152.67 C 958.84 142.13 965.88 133.93 975.78 131.78 C 985.68 129.62 997.15 130.12 1003.75 121.75 C 1010.34 113.37 1015.03 106.06 1014.00 94.00 C 1012.96 81.94 996.06 86.43 985.67 88.67 C 975.28 90.91 975.42 72.32 981.69 64.69 C 987.97 57.07 986.67 46.34 992.68 37.68 C 998.68 29.02 990.35 14.09 979.00 17.00 C 967.66 19.91 955.85 17.36 946.08 22.08 C 936.31 26.81 941.20 43.35 938.00 52.00 C 934.79 60.65 933.59 74.36 929.78 82.78 C 925.96 91.20 927.96 107.56 916.00 107.00 C 904.04 106.44 895.54 109.99 887.25 116.25 C 878.95 122.51 877.34 133.47 869.00 132.00
C 877.52 113.50 859.79 111.36 846.00 111.00 C 832.21 110.64 817.68 115.89 820.00 132.00 C 822.32 148.11 816.75 160.08 814.99 173.99 C 813.24 187.91 808.14 199.83 806.93 212.93 C 805.72 226.03 799.09 239.75 799.00 252.00 C 798.91 264.25 788.87 281.32 796.75 291.25 C 804.64 301.18 825.91 298.42 833.75 289.75 C 841.58 281.07 836.01 260.76 841.02 250.02 C 846.04 239.29 846.36 223.37 850.22 212.22 C 854.08 201.08 859.39 190.67 866.25 181.25 C 873.11 171.83 880.60 165.03 889.25 157.25 C 897.89 149.47 908.75 141.53 921.00 142.00 Z"/>
</g>
<g fill="None" fill-opacity="0.0" stroke="#050303" stroke-opacity="1.00" stroke-width="0.3"><path d="
M 1159.00 18.00 
C 1140.40 16.20 1118.43 22.56 1103.08 31.08 C 1087.72 39.59 1076.97 49.34 1066.92 63.92 C 1056.87 78.50 1050.37 93.52 1046.33 111.33 C 1042.29 129.14 1041.45 157.32 1044.01 175.99 C 1046.57 194.67 1049.67 216.36 1055.68 233.32 C 1061.69 250.29 1063.66 270.44 1071.68 285.32 C 1079.70 300.20 1078.35 323.24 1093.26 332.74 C 1108.17 342.24 1120.48 315.11 1131.75 306.75 C 1143.03 298.40 1152.38 281.35 1163.70 270.70 C 1175.02 260.04 1182.95 244.11 1193.75 231.75 C 1204.55 219.38 1211.97 204.40 1220.70 189.69 C 1229.43 174.99 1235.73 157.61 1239.00 140.00 C 1242.27 122.40 1242.08 95.17 1235.31 78.69 C 1228.53 62.21 1220.22 49.77 1206.25 38.75 C 1192.28 27.73 1176.33 19.68 1159.00 18.00
M 1165.00 23.00 
C 1179.20 25.03 1191.97 33.40 1204.08 41.92 C 1216.19 50.43 1221.97 61.88 1228.92 75.08 C 1235.88 88.27 1237.57 109.61 1236.07 125.07 C 1234.58 140.54 1231.12 158.13 1224.70 171.69 C 1218.27 185.26 1211.31 197.60 1203.75 209.75 C 1196.18 221.89 1187.66 232.50 1179.25 243.25 C 1170.83 254.00 1162.29 266.74 1152.75 275.75 C 1143.21 284.77 1135.66 299.87 1125.75 306.75 C 1115.84 313.63 1104.87 337.71 1093.25 326.75 C 1081.62 315.80 1083.93 299.16 1076.23 285.77 C 1068.53 272.38 1068.04 255.34 1062.22 240.78 C 1056.41 226.21 1054.48 209.68 1051.02 193.98 C 1047.57 178.27 1046.43 155.48 1047.00 139.00 C 1047.57 122.52 1051.51 105.60 1057.32 91.32 C 1063.13 77.05 1069.53 65.95 1079.77 54.77 C 1090.01 43.59 1099.28 36.16 1113.23 30.23 C 1127.18 24.29 1148.78 20.68 1165.00 23.00 Z"/>
</g>
<g fill="None" fill-opacity="0.0" stroke="#BF1F1F" stroke-opacity="1.00" stroke-width="0.3"><path d="
M 1165.00 23.00 
C 1148.78 20.68 1127.18 24.29 1113.23 30.23 C 1099.28 36.16 1090.01 43.59 1079.77 54.77 C 1069.53 65.95 1063.13 77.05 1057.32 91.32 C 1051.51 105.60 1047.57 122.52 1047.00 139.00 C 1046.43 155.48 1047.57 178.27 1051.02 193.98 C 1054.48 209.68 1056.41 226.21 1062.22 240.78 C 1068.04 255.34 1068.53 272.38 1076.23 285.77 C 1083.93 299.16 1081.62 315.80 1093.25 326.75 C 1104.87 337.71 1115.84 313.63 1125.75 306.75 C 1135.66 299.87 1143.21 284.77 1152.75 275.75 C 1162.29 266.74 1170.83 254.00 1179.25 243.25 C 1187.66 232.50 1196.18 221.89 1203.75 209.75 C 1211.31 197.60 1218.27 185.26 1224.70 171.69 C 1231.12 158.13 1234.58 140.54 1236.07 125.07 C 1237.57 109.61 1235.88 88.27 1228.92 75.08 C 1221.97 61.88 1216.19 50.43 1204.08 41.92 C 1191.97 33.40 1179.20 25.03 1165.00 23.00
M 1092.00 136.00 
C 1091.60 132.68 1091.53 129.28 1092.00 126.00
C 1093.30 91.81 1135.00 56.72 1167.23 76.77 C 1199.45 96.82 1198.88 144.74 1171.25 169.25 C 1143.61 193.76 1092.81 176.42 1092.00 136.00 Z"/>
</g>
<g fill="None" fill-opacity="0.0" stroke="#000000" stroke-opacity="1.00" stroke-width="0.3"><path d="
M 434.00 321.00 
C 436.97 318.41 440.23 314.77 443.00 312.00
C 443.75 310.32 445.43 308.96 447.00 308.00
C 445.22 319.58 456.90 325.90 465.78 329.22 C 474.66 332.54 488.87 334.65 494.70 324.70 C 500.52 314.74 501.54 306.69 504.68 295.68 C 507.81 284.66 514.25 278.37 526.00 278.00 C 537.75 277.63 552.00 272.79 550.00 287.00 C 548.00 301.21 548.56 310.75 555.75 320.25 C 562.94 329.75 576.04 327.77 586.78 327.78 C 597.51 327.79 601.33 312.01 603.00 305.00
C 609.48 316.65 633.83 324.64 644.92 313.92 C 656.01 303.19 651.96 283.28 657.68 268.68 C 663.40 254.08 662.97 234.60 667.07 219.07 C 671.18 203.54 674.59 187.95 678.01 172.01 C 681.42 156.06 687.06 141.58 690.22 125.22 C 693.38 108.87 703.37 98.11 703.00 80.00 C 702.63 61.89 684.04 57.78 666.00 58.00 C 647.96 58.22 639.28 72.90 641.00 91.00 C 642.72 109.10 633.15 123.93 631.98 140.98 C 630.80 158.02 624.66 172.49 621.93 188.93 C 619.19 205.37 614.76 221.45 611.78 237.78 C 608.79 254.11 603.85 269.40 602.00 286.00
C 601.02 256.27 604.69 224.11 607.00 194.00 C 609.31 163.89 609.95 131.91 613.22 102.22 C 616.49 72.53 571.71 66.78 549.22 76.22 C 526.73 85.67 525.05 119.69 514.32 140.32 C 503.60 160.95 496.05 188.07 485.98 209.98 C 475.90 231.88 466.84 257.43 458.00 280.00
C 456.26 263.21 446.65 245.05 433.77 233.23 C 420.89 221.41 413.28 195.44 435.00 190.00
C 430.51 202.74 432.63 218.32 447.00 219.00 C 461.37 219.68 473.05 216.86 476.67 203.67 C 480.30 190.49 484.13 178.09 480.98 165.02 C 477.82 151.96 466.14 149.29 455.07 145.93 C 444.00 142.56 426.63 143.54 416.07 148.07 C 405.52 152.61 397.81 158.31 389.75 166.75 C 381.70 175.19 377.24 184.63 373.32 195.32 C 369.40 206.01 367.13 221.10 370.08 231.92 C 373.02 242.75 383.22 249.71 389.30 257.70 C 395.39 265.69 412.56 270.42 406.30 282.30 C 400.05 294.18 387.26 285.36 382.75 274.25 C 378.25 263.14 360.18 264.16 354.75 274.75 C 349.33 285.34 342.74 296.38 344.00 309.00 C 345.27 321.62 356.09 327.00 366.78 331.22 C 377.46 335.44 393.26 338.57 404.99 335.99 C 416.73 333.41 424.54 328.04 434.00 321.00
M 682.00 63.00 
C 696.68 65.38 702.10 79.43 696.07 92.07 C 690.05 104.72 688.84 116.65 684.68 129.68 C 680.52 142.71 676.99 154.55 674.07 168.07 C 671.16 181.60 667.11 195.02 665.00 209.00 C 662.90 222.99 657.08 235.12 657.00 250.00 C 656.92 264.88 646.62 273.96 648.00 290.00 C 649.38 306.04 639.87 316.89 622.98 313.02 C 606.08 309.16 602.90 298.51 606.78 283.78 C 610.66 269.05 610.58 256.80 614.93 242.93 C 619.28 229.06 619.18 215.79 623.00 202.00 C 626.81 188.20 628.53 174.95 631.99 160.99 C 635.45 147.03 636.83 134.42 639.99 119.99 C 643.16 105.56 647.84 94.42 647.00 78.00 C 646.15 61.58 668.23 60.76 682.00 63.00
M 585.00 323.00 
C 581.77 323.67 579.13 323.51 576.00 323.00
C 566.49 322.48 558.64 320.90 555.22 310.78 C 551.80 300.66 556.52 289.67 555.00 279.00 C 553.48 268.33 535.84 273.00 529.00 273.00
C 526.71 273.22 522.89 273.74 520.00 274.00
C 503.10 277.50 498.60 294.49 496.02 311.02 C 493.45 327.56 469.66 332.84 456.92 320.08 C 444.18 307.33 458.62 291.39 462.98 276.98 C 467.33 262.56 476.27 248.00 481.31 233.31 C 486.34 218.61 493.71 205.01 498.92 189.92 C 504.13 174.83 511.95 161.69 516.93 145.93 C 521.90 130.16 531.37 119.69 533.93 101.93 C 536.49 84.16 554.98 76.51 572.00 78.00 C 589.02 79.49 611.67 81.09 609.00 102.00 C 606.33 122.91 606.63 140.02 604.67 159.67 C 602.71 179.32 603.02 197.90 600.22 216.22 C 597.42 234.54 601.12 258.45 597.00 275.00 C 592.88 291.55 606.51 318.55 585.00 323.00
M 446.00 148.00 
C 456.63 149.52 468.79 151.58 475.30 162.70 C 481.81 173.82 475.36 185.99 473.07 199.07 C 470.79 212.16 459.57 215.95 445.33 214.67 C 431.09 213.39 445.31 184.68 432.33 185.33 C 419.35 185.99 415.20 204.06 417.00 214.00 C 418.80 223.94 428.55 231.76 434.75 240.25 C 440.96 248.74 448.84 257.68 451.32 268.68 C 453.80 279.68 450.84 294.82 443.75 303.75 C 436.65 312.67 430.67 318.93 420.92 324.92 C 411.17 330.91 396.86 335.17 385.00 332.00 C 373.14 328.83 363.86 327.47 353.75 319.25 C 343.65 311.02 350.31 296.35 353.31 286.31 C 356.30 276.26 368.27 265.03 376.75 274.25 C 385.24 283.46 387.90 296.29 401.68 291.68 C 415.45 287.07 413.11 273.34 404.25 265.75 C 395.39 258.16 390.20 252.42 382.08 243.92 C 373.96 235.42 371.26 220.58 374.33 209.33 C 377.39 198.08 380.04 187.21 386.77 177.77 C 393.51 168.33 399.25 162.19 409.23 156.23 C 419.21 150.27 433.60 146.23 446.00 148.00 Z"/>
</g>
<g fill="None" fill-opacity="0.0" stroke="#BF1F1F" stroke-opacity="1.00" stroke-width="0.3"><path d="
M 682.00 63.00 
C 668.23 60.76 646.15 61.58 647.00 78.00 C 647.84 94.42 643.16 105.56 639.99 119.99 C 636.83 134.42 635.45 147.03 631.99 160.99 C 628.53 174.95 626.81 188.20 623.00 202.00 C 619.18 215.79 619.28 229.06 614.93 242.93 C 610.58 256.80 610.66 269.05 606.78 283.78 C 602.90 298.51 606.08 309.16 622.98 313.02 C 639.87 316.89 649.38 306.04 648.00 290.00 C 646.62 273.96 656.92 264.88 657.00 250.00 C 657.08 235.12 662.90 222.99 665.00 209.00 C 667.11 195.02 671.16 181.60 674.07 168.07 C 676.99 154.55 680.52 142.71 684.68 129.68 C 688.84 116.65 690.05 104.72 696.07 92.07 C 702.10 79.43 696.68 65.38 682.00 63.00 Z"/>
</g>
<g fill="None" fill-opacity="0.0" stroke="#050303" stroke-opacity="1.00" stroke-width="0.3"><path d="
M 1092.00 126.00 
C 1091.87 129.31 1091.93 132.69 1092.00 136.00
C 1092.81 176.42 1143.61 193.76 1171.25 169.25 C 1198.88 144.74 1199.45 96.82 1167.23 76.77 C 1135.00 56.72 1093.30 91.81 1092.00 126.00
M 1155.00 76.00 
C 1181.64 80.77 1190.72 114.56 1185.07 138.07 C 1179.43 161.58 1155.28 182.19 1129.00 176.00 C 1102.72 169.82 1090.43 139.33 1098.32 115.32 C 1106.21 91.32 1127.96 71.15 1155.00 76.00 Z"/>
</g>
<g fill="None" fill-opacity="0.0" stroke="#FDFDFD" stroke-opacity="1.00" stroke-width="0.3"><path d="
M 1155.00 76.00 
C 1127.96 71.15 1106.21 91.32 1098.32 115.32 C 1090.43 139.33 1102.72 169.82 1129.00 176.00 C 1155.28 182.19 1179.43 161.58 1185.07 138.07 C 1190.72 114.56 1181.64 80.77 1155.00 76.00 Z"/>
</g>
<g fill="None" fill-opacity="0.0" stroke="#BF1F1F" stroke-opacity="1.00" stroke-width="0.3"><path d="
M 520.00 274.00 
C 522.64 273.45 525.74 273.00 529.00 273.00
C 535.84 273.00 553.48 268.33 555.00 279.00 C 556.52 289.67 551.80 300.66 555.22 310.78 C 558.64 320.90 566.49 322.48 576.00 323.00
C 578.90 323.16 582.11 323.26 585.00 323.00
C 606.51 318.55 592.88 291.55 597.00 275.00 C 601.12 258.45 597.42 234.54 600.22 216.22 C 603.02 197.90 602.71 179.32 604.67 159.67 C 606.63 140.02 606.33 122.91 609.00 102.00 C 611.67 81.09 589.02 79.49 572.00 78.00 C 554.98 76.51 536.49 84.16 533.93 101.93 C 531.37 119.69 521.90 130.16 516.93 145.93 C 511.95 161.69 504.13 174.83 498.92 189.92 C 493.71 205.01 486.34 218.61 481.31 233.31 C 476.27 248.00 467.33 262.56 462.98 276.98 C 458.62 291.39 444.18 307.33 456.92 320.08 C 469.66 332.84 493.45 327.56 496.02 311.02 C 498.60 294.49 503.10 277.50 520.00 274.00
M 557.00 229.00 
C 546.41 228.18 536.34 233.97 526.00 231.00
C 527.62 224.02 529.90 217.12 532.32 210.32 C 534.74 203.53 537.62 198.17 540.31 191.31 C 542.99 184.44 545.87 179.07 548.92 171.92 C 551.97 164.78 554.98 162.12 557.77 153.77 C 560.56 145.42 567.29 143.58 564.67 153.67 C 562.06 163.77 562.38 168.73 561.02 178.02 C 559.67 187.32 560.19 194.13 559.02 203.02 C 557.86 211.92 559.12 220.43 557.00 229.00 Z"/>
</g>
<g fill="None" fill-opacity="0.0" stroke="#000000" stroke-opacity="1.00" stroke-width="0.3"><path d="
M 26.00 343.00 
C 25.84 345.94 25.84 349.06 26.00 352.00
C 30.37 388.87 74.19 374.13 98.99 367.99 C 123.80 361.85 150.75 351.43 172.75 336.75 C 194.76 322.08 208.90 302.59 220.23 279.23 C 231.56 255.87 227.08 218.86 196.00 213.00
C 203.24 208.15 210.09 202.46 217.00 197.00
C 219.96 194.26 223.18 190.82 226.00 188.00
C 241.84 168.73 254.20 140.73 238.75 117.25 C 223.30 93.77 195.06 90.10 169.00 92.00 C 142.94 93.90 111.98 100.71 88.02 109.02 C 64.07 117.34 60.10 168.57 91.00 163.00
C 77.79 214.80 59.99 265.32 50.00 318.00
C 35.89 317.15 26.69 330.34 26.00 343.00
M 182.00 219.00 
C 189.97 219.44 201.17 217.52 208.69 223.31 C 216.22 229.09 218.72 236.21 221.33 244.67 C 223.94 253.14 222.57 264.10 219.02 272.02 C 215.48 279.95 211.90 287.42 207.70 294.70 C 203.49 301.97 198.86 307.88 192.75 313.75 C 186.64 319.62 182.06 324.54 175.25 329.25 C 168.45 333.97 162.21 338.70 154.77 342.77 C 147.33 346.84 140.03 349.61 131.93 352.93 C 123.82 356.24 115.38 358.67 106.78 361.78 C 98.17 364.88 88.21 365.78 79.00 368.00 C 69.79 370.22 58.95 370.78 49.00 371.00 C 39.05 371.22 32.00 364.92 30.67 355.33 C 29.34 345.73 29.11 336.20 35.75 328.75 C 42.40 321.30 54.67 324.98 54.99 313.99 C 55.31 303.01 59.74 296.14 61.33 286.33 C 62.91 276.51 66.01 269.24 67.99 259.99 C 69.97 250.74 73.77 242.93 75.93 233.93 C 78.08 224.92 80.69 216.91 82.98 207.98 C 85.26 199.04 88.57 190.79 90.78 181.78 C 92.99 172.77 95.40 163.21 97.00 154.00
C 83.47 167.21 71.00 153.43 74.00 139.00 C 77.00 124.57 80.69 114.61 95.07 111.07 C 109.45 107.54 119.93 103.87 134.07 101.07 C 148.22 98.28 163.34 95.87 178.00 96.00 C 192.66 96.13 206.88 96.81 218.70 104.31 C 230.51 111.80 236.20 119.15 239.99 132.01 C 243.78 144.87 238.04 160.39 232.23 171.23 C 226.42 182.06 218.66 189.65 209.30 197.30 C 199.95 204.96 191.50 211.80 182.00 219.00 Z"/>
</g>
<g fill="None" fill-opacity="0.0" stroke="#BF1F1F" stroke-opacity="1.00" stroke-width="0.3"><path d="
M 182.00 219.00 
C 191.50 211.80 199.95 204.96 209.30 197.30 C 218.66 189.65 226.42 182.06 232.23 171.23 C 238.04 160.39 243.78 144.87 239.99 132.01 C 236.20 119.15 230.51 111.80 218.70 104.31 C 206.88 96.81 192.66 96.13 178.00 96.00 C 163.34 95.87 148.22 98.28 134.07 101.07 C 119.93 103.87 109.45 107.54 95.07 111.07 C 80.69 114.61 77.00 124.57 74.00 139.00 C 71.00 153.43 83.47 167.21 97.00 154.00
C 95.40 163.21 92.99 172.77 90.78 181.78 C 88.57 190.79 85.26 199.04 82.98 207.98 C 80.69 216.91 78.08 224.92 75.93 233.93 C 73.77 242.93 69.97 250.74 67.99 259.99 C 66.01 269.24 62.91 276.51 61.33 286.33 C 59.74 296.14 55.31 303.01 54.99 313.99 C 54.67 324.98 42.40 321.30 35.75 328.75 C 29.11 336.20 29.34 345.73 30.67 355.33 C 32.00 364.92 39.05 371.22 49.00 371.00 C 58.95 370.78 69.79 370.22 79.00 368.00 C 88.21 365.78 98.17 364.88 106.78 361.78 C 115.38 358.67 123.82 356.24 131.93 352.93 C 140.03 349.61 147.33 346.84 154.77 342.77 C 162.21 338.70 168.45 333.97 175.25 329.25 C 182.06 324.54 186.64 319.62 192.75 313.75 C 198.86 307.88 203.49 301.97 207.70 294.70 C 211.90 287.42 215.48 279.95 219.02 272.02 C 222.57 264.10 223.94 253.14 221.33 244.67 C 218.72 236.21 216.22 229.09 208.69 223.31 C 201.17 217.52 189.97 219.44 182.00 219.00
M 124.00 205.00 
C 126.12 194.48 133.05 181.41 135.32 171.32 C 137.59 161.23 141.93 144.81 154.01 145.01 C 166.09 145.20 182.72 134.05 192.69 142.31 C 202.67 150.56 185.23 163.02 179.75 169.75 C 174.28 176.48 164.12 185.52 156.25 191.25 C 148.38 196.98 135.20 207.08 124.00 205.00
M 173.00 248.00 
C 189.64 250.38 186.52 268.91 174.75 276.75 C 162.98 284.59 158.51 292.26 144.92 297.92 C 131.32 303.58 124.27 309.49 107.98 312.98 C 91.68 316.46 100.30 292.26 103.98 281.98 C 107.65 271.69 110.55 252.78 126.07 253.07 C 141.60 253.37 157.20 245.74 173.00 248.00 Z"/>
</g>
<g fill="None" fill-opacity="0.0" stroke="#000000" stroke-opacity="1.00" stroke-width="0.3"><path d="
M 770.00 119.00 
C 755.13 116.88 738.38 121.86 727.08 130.08 C 715.79 138.31 708.49 146.60 700.77 157.77 C 693.05 168.94 685.88 178.61 680.31 191.31 C 674.74 204.00 668.90 217.50 667.99 231.99 C 667.09 246.49 664.81 268.86 669.22 282.78 C 673.64 296.69 682.91 303.94 695.98 310.02 C 709.04 316.11 728.45 311.95 741.93 307.93 C 755.41 303.91 764.69 297.88 776.75 289.75 C 788.81 281.63 792.83 266.21 782.75 254.25 C 772.67 242.29 756.74 253.30 746.70 259.70 C 736.66 266.10 716.85 275.29 714.00 257.00 C 711.15 238.71 738.40 245.52 749.78 239.78 C 761.15 234.03 774.24 230.16 783.23 219.23 C 792.22 208.30 799.43 199.01 803.22 185.22 C 807.02 171.43 809.11 152.79 802.30 139.70 C 795.50 126.60 783.43 120.92 770.00 119.00
M 720.00 308.00 
C 716.01 308.57 711.95 308.64 708.00 308.00
C 695.04 307.30 684.32 300.20 677.08 288.92 C 669.85 277.64 670.72 257.73 671.00 244.00 C 671.28 230.27 675.35 215.16 679.93 202.93 C 684.51 190.69 690.42 180.07 697.75 169.75 C 705.08 159.43 710.49 149.77 720.25 141.25 C 730.00 132.73 739.57 124.87 753.00 124.00 C 766.43 123.14 783.96 123.76 793.75 134.25 C 803.55 144.74 803.72 161.23 801.22 174.22 C 798.72 187.21 794.59 198.81 786.25 209.25 C 777.90 219.68 769.81 226.21 757.92 231.92 C 746.04 237.64 730.25 240.08 717.00 241.00 C 703.75 241.92 709.71 273.34 722.23 272.77 C 734.75 272.20 747.85 267.04 758.70 258.69 C 769.54 250.35 784.88 254.12 784.00 270.00 C 783.12 285.89 769.81 288.97 758.92 295.92 C 748.04 302.88 733.01 307.50 720.00 308.00 Z"/>
</g>
<g fill="None" fill-opacity="0.0" stroke="#BF1F1F" stroke-opacity="1.00" stroke-width="0.3"><path d="
M 708.00 308.00 
C 711.94 308.21 716.06 308.15 720.00 308.00
C 733.01 307.50 748.04 302.88 758.92 295.92 C 769.81 288.97 783.12 285.89 784.00 270.00 C 784.88 254.12 769.54 250.35 758.70 258.69 C 747.85 267.04 734.75 272.20 722.23 272.77 C 709.71 273.34 703.75 241.92 717.00 241.00 C 730.25 240.08 746.04 237.64 757.92 231.92 C 769.81 226.21 777.90 219.68 786.25 209.25 C 794.59 198.81 798.72 187.21 801.22 174.22 C 803.72 161.23 803.55 144.74 793.75 134.25 C 783.96 123.76 766.43 123.14 753.00 124.00 C 739.57 124.87 730.00 132.73 720.25 141.25 C 710.49 149.77 705.08 159.43 697.75 169.75 C 690.42 180.07 684.51 190.69 679.93 202.93 C 675.35 215.16 671.28 230.27 671.00 244.00 C 670.72 257.73 669.85 277.64 677.08 288.92 C 684.32 300.20 695.04 307.30 708.00 308.00
M 765.00 158.00 
C 773.35 160.78 768.10 176.47 765.08 182.08 C 762.05 187.68 756.64 196.55 750.75 200.75 C 744.87 204.96 736.78 214.04 728.33 210.67 C 719.88 207.30 725.16 194.20 729.92 188.92 C 734.68 183.64 738.06 174.60 743.25 169.25 C 748.44 163.90 756.44 155.15 765.00 158.00 Z"/>
</g>
<g fill="None" fill-opacity="0.0" stroke="#570E0E" stroke-opacity="1.00" stroke-width="0.3"><path d="
M 1092.00 136.00 
C 1091.93 132.69 1091.87 129.31 1092.00 126.00
C 1091.53 129.28 1091.60 132.68 1092.00 136.00 Z"/>
</g>
<g fill="None" fill-opacity="0.0" stroke="#7B7B7B" stroke-opacity="1.00" stroke-width="0.3"><path d="
M 815.00 150.00 
C 815.81 144.32 815.87 137.41 816.00 131.00
C 815.32 136.65 815.24 143.63 815.00 150.00 Z"/>
</g>
<g fill="None" fill-opacity="0.0" stroke="#000000" stroke-opacity="1.00" stroke-width="0.3"><path d="
M 124.00 205.00 
C 135.20 207.08 148.38 196.98 156.25 191.25 C 164.12 185.52 174.28 176.48 179.75 169.75 C 185.23 163.02 202.67 150.56 192.69 142.31 C 182.72 134.05 166.09 145.20 154.01 145.01 C 141.93 144.81 137.59 161.23 135.32 171.32 C 133.05 181.41 126.12 194.48 124.00 205.00
M 130.00 201.00 
C 133.25 193.16 134.20 183.84 138.32 176.32 C 142.44 168.81 139.99 157.47 147.75 151.75 C 155.52 146.03 165.95 149.89 175.07 145.07 C 184.20 140.25 194.91 148.64 186.75 155.75 C 178.60 162.86 177.48 167.09 170.25 173.25 C 163.02 179.40 159.41 184.34 151.92 188.92 C 144.43 193.49 138.26 198.65 130.00 201.00 Z"/>
</g>
<g fill="None" fill-opacity="0.0" stroke="#FAFAFA" stroke-opacity="1.00" stroke-width="0.3"><path d="
M 130.00 201.00 
C 138.26 198.65 144.43 193.49 151.92 188.92 C 159.41 184.34 163.02 179.40 170.25 173.25 C 177.48 167.09 178.60 162.86 186.75 155.75 C 194.91 148.64 184.20 140.25 175.07 145.07 C 165.95 149.89 155.52 146.03 147.75 151.75 C 139.99 157.47 142.44 168.81 138.32 176.32 C 134.20 183.84 133.25 193.16 130.00 201.00 Z"/>
</g>
<g fill="None" fill-opacity="0.0" stroke="#000000" stroke-opacity="1.00" stroke-width="0.3"><path d="
M 557.00 229.00 
C 559.12 220.43 557.86 211.92 559.02 203.02 C 560.19 194.13 559.67 187.32 561.02 178.02 C 562.38 168.73 562.06 163.77 564.67 153.67 C 567.29 143.58 560.56 145.42 557.77 153.77 C 554.98 162.12 551.97 164.78 548.92 171.92 C 545.87 179.07 542.99 184.44 540.31 191.31 C 537.62 198.17 534.74 203.53 532.32 210.32 C 529.90 217.12 527.62 224.02 526.00 231.00
C 536.34 233.97 546.41 228.18 557.00 229.00
M 553.00 225.00 
C 545.71 224.49 539.36 227.72 532.00 227.00
C 537.37 205.01 548.67 184.98 557.00 164.00
C 557.67 183.42 554.24 204.87 553.00 225.00 Z"/>
</g>
<g fill="None" fill-opacity="0.0" stroke="#BF1F1F" stroke-opacity="1.00" stroke-width="0.3"><path d="
M 446.00 148.00 
C 433.60 146.23 419.21 150.27 409.23 156.23 C 399.25 162.19 393.51 168.33 386.77 177.77 C 380.04 187.21 377.39 198.08 374.33 209.33 C 371.26 220.58 373.96 235.42 382.08 243.92 C 390.20 252.42 395.39 258.16 404.25 265.75 C 413.11 273.34 415.45 287.07 401.68 291.68 C 387.90 296.29 385.24 283.46 376.75 274.25 C 368.27 265.03 356.30 276.26 353.31 286.31 C 350.31 296.35 343.65 311.02 353.75 319.25 C 363.86 327.47 373.14 328.83 385.00 332.00 C 396.86 335.17 411.17 330.91 420.92 324.92 C 430.67 318.93 436.65 312.67 443.75 303.75 C 450.84 294.82 453.80 279.68 451.32 268.68 C 448.84 257.68 440.96 248.74 434.75 240.25 C 428.55 231.76 418.80 223.94 417.00 214.00 C 415.20 204.06 419.35 185.99 432.33 185.33 C 445.31 184.68 431.09 213.39 445.33 214.67 C 459.57 215.95 470.79 212.16 473.07 199.07 C 475.36 185.99 481.81 173.82 475.30 162.70 C 468.79 151.58 456.63 149.52 446.00 148.00 Z"/>
</g>
<g fill="None" fill-opacity="0.0" stroke="#000000" stroke-opacity="1.00" stroke-width="0.3"><path d="
M 290.00 331.00 
C 291.04 343.92 305.97 340.24 315.00 341.00 C 324.03 341.76 335.15 337.12 336.07 327.07 C 337.00 317.03 337.81 306.42 341.22 297.22 C 344.64 288.03 345.32 278.90 349.02 270.02 C 352.73 261.15 352.51 251.20 356.68 242.68 C 360.84 234.15 360.45 224.99 364.68 216.68 C 368.91 208.37 369.23 198.33 373.08 190.08 C 376.92 181.82 380.75 172.19 372.75 165.25 C 364.74 158.32 354.32 159.72 345.00 158.00 C 335.68 156.28 325.64 161.05 322.93 169.93 C 320.21 178.80 320.05 189.55 315.98 197.98 C 311.90 206.40 311.97 217.60 308.98 225.98 C 305.98 234.35 303.83 246.15 301.98 253.98 C 300.12 261.81 296.47 273.22 290.75 277.75 C 285.04 282.28 279.63 294.97 272.03 292.97 C 264.43 290.97 274.52 274.17 275.22 267.22 C 275.93 260.27 282.06 249.09 284.02 241.02 C 285.99 232.96 290.02 222.99 292.22 214.22 C 294.42 205.46 297.40 196.37 300.22 187.22 C 303.04 178.07 297.85 169.22 288.07 166.93 C 278.29 164.64 268.01 164.64 258.22 168.22 C 248.44 171.81 245.56 180.17 244.98 189.98 C 244.39 199.78 239.31 208.39 237.99 217.99 C 236.67 227.60 232.68 236.49 231.00 246.00 C 229.31 255.50 227.21 264.60 224.98 273.98 C 222.74 283.35 221.28 293.65 218.99 302.99 C 216.70 312.33 217.19 324.64 222.70 332.30 C 228.21 339.97 233.45 344.10 241.78 348.22 C 250.10 352.35 262.61 349.33 270.31 345.31 C 278.00 341.28 282.96 335.53 290.00 331.00
M 321.00 336.00 
C 315.03 337.48 305.90 337.79 300.00 336.00
C 292.73 333.79 293.63 328.16 294.00 321.00
C 277.95 333.71 264.56 352.73 241.77 343.23 C 218.98 333.73 220.50 308.02 226.93 287.93 C 233.35 267.84 234.05 242.16 241.78 222.78 C 249.51 203.39 242.39 171.23 270.00 170.00
C 273.13 169.49 275.95 169.56 279.00 170.00
C 294.48 170.59 298.59 179.58 294.08 192.08 C 289.56 204.58 287.34 213.32 284.07 225.07 C 280.81 236.83 275.22 245.65 273.22 257.22 C 271.23 268.79 262.48 279.66 265.00 292.00 C 267.52 304.34 285.14 292.51 289.75 284.75 C 294.37 276.99 305.32 268.47 305.78 257.78 C 306.23 247.08 313.02 233.62 313.99 222.99 C 314.96 212.37 322.69 199.54 323.78 189.78 C 324.87 180.02 327.54 161.64 339.02 162.02 C 350.51 162.41 368.79 161.51 372.77 172.23 C 376.75 182.95 365.15 195.36 364.02 206.02 C 362.90 216.69 355.64 227.32 353.22 238.22 C 350.81 249.13 346.65 260.57 343.68 271.68 C 340.71 282.79 337.91 293.88 334.07 305.07 C 330.24 316.27 336.13 332.25 321.00 336.00 Z"/>
</g>
<g fill="None" fill-opacity="0.0" stroke="#000000" stroke-opacity="1.00" stroke-width="0.3"><path d="
M 765.00 158.00 
C 756.44 155.15 748.44 163.90 743.25 169.25 C 738.06 174.60 734.68 183.64 729.92 188.92 C 725.16 194.20 719.88 207.30 728.33 210.67 C 736.78 214.04 744.87 204.96 750.75 200.75 C 756.64 196.55 762.05 187.68 765.08 182.08 C 768.10 176.47 773.35 160.78 765.00 158.00
M 763.00 162.00 
C 769.25 164.68 761.94 177.67 760.08 182.08 C 758.21 186.48 752.57 194.04 748.25 197.25 C 743.92 200.45 736.25 208.76 730.32 206.66 C 724.39 204.57 731.95 192.61 734.92 188.92 C 737.88 185.23 742.51 176.51 745.77 172.77 C 749.03 169.03 757.44 159.62 763.00 162.00 Z"/>
</g>
<g fill="None" fill-opacity="0.0" stroke="#BF1F1F" stroke-opacity="1.00" stroke-width="0.3"><path d="
M 279.00 170.00 
C 276.04 169.89 272.95 169.84 270.00 170.00
C 242.39 171.23 249.51 203.39 241.78 222.78 C 234.05 242.16 233.35 267.84 226.93 287.93 C 220.50 308.02 218.98 333.73 241.77 343.23 C 264.56 352.73 277.95 333.71 294.00 321.00
C 293.63 328.16 292.73 333.79 300.00 336.00
C 306.06 337.02 314.89 336.76 321.00 336.00
C 336.13 332.25 330.24 316.27 334.07 305.07 C 337.91 293.88 340.71 282.79 343.68 271.68 C 346.65 260.57 350.81 249.13 353.22 238.22 C 355.64 227.32 362.90 216.69 364.02 206.02 C 365.15 195.36 376.75 182.95 372.77 172.23 C 368.79 161.51 350.51 162.41 339.02 162.02 C 327.54 161.64 324.87 180.02 323.78 189.78 C 322.69 199.54 314.96 212.37 313.99 222.99 C 313.02 233.62 306.23 247.08 305.78 257.78 C 305.32 268.47 294.37 276.99 289.75 284.75 C 285.14 292.51 267.52 304.34 265.00 292.00 C 262.48 279.66 271.23 268.79 273.22 257.22 C 275.22 245.65 280.81 236.83 284.07 225.07 C 287.34 213.32 289.56 204.58 294.08 192.08 C 298.59 179.58 294.48 170.59 279.00 170.00 Z"/>
</g>
<g fill="None" fill-opacity="0.0" stroke="#F8F8F8" stroke-opacity="1.00" stroke-width="0.3"><path d="
M 763.00 162.00 
C 757.44 159.62 749.03 169.03 745.77 172.77 C 742.51 176.51 737.88 185.23 734.92 188.92 C 731.95 192.61 724.39 204.57 730.32 206.66 C 736.25 208.76 743.92 200.45 748.25 197.25 C 752.57 194.04 758.21 186.48 760.08 182.08 C 761.94 177.67 769.25 164.68 763.00 162.00 Z"/>
</g>
<g fill="None" fill-opacity="0.0" stroke="#F7F7F7" stroke-opacity="1.00" stroke-width="0.3"><path d="
M 553.00 225.00 
C 554.24 204.87 557.67 183.42 557.00 164.00
C 548.67 184.98 537.37 205.01 532.00 227.00
C 539.36 227.72 545.71 224.49 553.00 225.00 Z"/>
</g>
<g fill="None" fill-opacity="0.0" stroke="#641010" stroke-opacity="1.00" stroke-width="0.3"><path d="
M 270.00 170.00 
C 272.95 169.84 276.04 169.89 279.00 170.00
C 275.95 169.56 273.13 169.49 270.00 170.00 Z"/>
</g>
<g fill="None" fill-opacity="0.0" stroke="#858585" stroke-opacity="1.00" stroke-width="0.3"><path d="
M 217.00 197.00 
C 220.30 194.39 223.24 191.23 226.00 188.00
C 223.18 190.82 219.96 194.26 217.00 197.00 Z"/>
</g>
<g fill="None" fill-opacity="0.0" stroke="#000000" stroke-opacity="1.00" stroke-width="0.3"><path d="
M 173.00 248.00 
C 157.20 245.74 141.60 253.37 126.07 253.07 C 110.55 252.78 107.65 271.69 103.98 281.98 C 100.30 292.26 91.68 316.46 107.98 312.98 C 124.27 309.49 131.32 303.58 144.92 297.92 C 158.51 292.26 162.98 284.59 174.75 276.75 C 186.52 268.91 189.64 250.38 173.00 248.00
M 101.00 309.00 
C 103.67 296.44 108.08 286.28 110.33 273.33 C 112.58 260.37 128.06 255.52 139.22 256.22 C 150.38 256.92 168.48 246.10 178.23 254.77 C 187.97 263.44 171.01 273.96 163.77 279.77 C 156.53 285.58 145.62 293.99 135.77 297.77 C 125.93 301.55 112.52 309.44 101.00 309.00 Z"/>
</g>
<g fill="None" fill-opacity="0.0" stroke="#FBFBFB" stroke-opacity="1.00" stroke-width="0.3"><path d="
M 101.00 309.00 
C 112.52 309.44 125.93 301.55 135.77 297.77 C 145.62 293.99 156.53 285.58 163.77 279.77 C 171.01 273.96 187.97 263.44 178.23 254.77 C 168.48 246.10 150.38 256.92 139.22 256.22 C 128.06 255.52 112.58 260.37 110.33 273.33 C 108.08 286.28 103.67 296.44 101.00 309.00 Z"/>
</g>
<g fill="None" fill-opacity="0.0" stroke="#570E0E" stroke-opacity="1.00" stroke-width="0.3"><path d="
M 520.00 274.00 
C 522.89 273.74 526.71 273.22 529.00 273.00
C 525.74 273.00 522.64 273.45 520.00 274.00 Z"/>
</g>
<g fill="None" fill-opacity="0.0" stroke="#808080" stroke-opacity="1.00" stroke-width="0.3"><path d="
M 816.00 300.00 
C 812.06 300.00 807.93 300.36 804.00 300.00
C 807.98 300.82 812.06 300.38 816.00 300.00 Z"/>
</g>
<g fill="None" fill-opacity="0.0" stroke="#621010" stroke-opacity="1.00" stroke-width="0.3"><path d="
M 720.00 308.00 
C 716.06 308.15 711.94 308.21 708.00 308.00
C 711.95 308.64 716.01 308.57 720.00 308.00 Z"/>
</g>
<g fill="None" fill-opacity="0.0" stroke="#858585" stroke-opacity="1.00" stroke-width="0.3"><path d="
M 434.00 321.00 
C 437.36 318.50 440.26 315.21 443.00 312.00
C 440.23 314.77 436.97 318.41 434.00 321.00 Z"/>
</g>
<g fill="None" fill-opacity="0.0" stroke="#651010" stroke-opacity="1.00" stroke-width="0.3"><path d="
M 585.00 323.00 
C 582.11 323.26 578.90 323.16 576.00 323.00
C 579.13 323.51 581.77 323.67 585.00 323.00 Z"/>
</g>
<g fill="None" fill-opacity="0.0" stroke="#5C0F0F" stroke-opacity="1.00" stroke-width="0.3"><path d="
M 321.00 336.00 
C 314.89 336.76 306.06 337.02 300.00 336.00
C 305.90 337.79 315.03 337.48 321.00 336.00 Z"/>
</g>
<g fill="None" fill-opacity="0.0" stroke="#696969" stroke-opacity="1.00" stroke-width="0.3"><path d="
M 26.00 352.00 
C 25.84 349.06 25.84 345.94 26.00 343.00
C 25.50 346.09 25.49 348.85 26.00 352.00 Z"/>
</g>
<g fill="None" fill-opacity="0.0" stroke="#000000" stroke-opacity="1.00" stroke-width="0.3"><path d="
M 1086.00 413.00 
C 1088.87 413.20 1092.13 413.26 1095.00 413.00
C 1131.62 405.42 1128.03 345.19 1090.00 345.00 C 1051.98 344.81 1049.32 410.50 1086.00 413.00
M 1096.00 349.00 
C 1129.38 354.98 1119.50 415.76 1085.00 409.00 C 1050.50 402.24 1061.63 342.84 1096.00 349.00 Z"/>
</g>
<g fill="None" fill-opacity="0.0" stroke="#BE1F1F" stroke-opacity="1.00" stroke-width="0.3"><path d="
M 1096.00 349.00 
C 1061.63 342.84 1050.50 402.24 1085.00 409.00 C 1119.50 415.76 1129.38 354.98 1096.00 349.00 Z"/>
</g>
<g fill="None" fill-opacity="0.0" stroke="#6F6F6F" stroke-opacity="1.00" stroke-width="0.3"><path d="
M 1095.00 413.00 
C 1092.13 413.26 1088.87 413.20 1086.00 413.00
C 1089.16 413.57 1091.75 413.67 1095.00 413.00 Z"/>
</g>
<g fill="#FEFEFE" fill-opacity="1.00" stroke="None">
<path d="
M 0.00 435.00 
L 1254.00 435.00
L 1254.00 0.00
L 0.00 0.00
L 0.00 435.00
M 816.00 300.00 
C 812.06 300.38 807.98 300.82 804.00 300.00
C 782.23 295.49 791.31 272.97 794.00 257.00 C 796.68 241.02 801.10 219.78 804.00 203.00 C 806.90 186.21 814.33 167.43 815.00 150.00
C 815.24 143.63 815.32 136.65 816.00 131.00
C 816.31 115.45 825.70 105.95 841.00 107.00 C 856.30 108.05 872.06 103.71 875.00 122.00
C 881.57 116.55 887.22 109.10 895.68 105.68 C 904.14 102.26 920.71 105.99 922.00 95.00 C 923.29 84.00 927.32 76.27 929.98 65.98 C 932.63 55.68 936.28 46.04 936.00 35.00 C 935.71 23.96 942.73 15.94 954.00 16.00 C 965.27 16.06 975.73 11.15 987.01 13.99 C 998.28 16.83 1001.27 27.90 997.22 37.22 C 993.17 46.54 992.13 55.56 987.07 64.07 C 982.02 72.58 978.13 86.64 989.07 83.07 C 1000.01 79.51 1011.80 78.52 1016.92 88.08 C 1022.05 97.63 1015.56 109.26 1011.75 117.75 C 1007.93 126.23 998.81 131.77 990.00 133.00 C 981.18 134.23 968.27 135.00 964.70 144.70 C 961.12 154.39 959.35 163.91 957.07 174.07 C 954.79 184.23 950.67 193.19 950.00 204.00 C 949.34 214.82 942.02 223.09 944.00 235.00 C 945.98 246.91 958.74 237.58 967.67 235.67 C 976.60 233.77 983.09 246.56 983.00 256.00 C 982.91 265.44 978.13 274.58 969.30 279.30 C 960.48 284.02 953.84 288.65 943.78 290.78 C 933.72 292.90 920.83 294.31 910.78 291.22 C 900.72 288.14 895.23 282.45 893.02 271.98 C 890.81 261.50 892.53 248.32 893.78 237.78 C 895.02 227.24 897.26 216.86 899.78 206.78 C 902.30 196.70 903.64 186.72 906.93 176.93 C 910.21 167.13 913.03 157.18 915.00 147.00
C 894.75 153.10 882.73 168.84 869.08 185.08 C 855.44 201.33 852.28 226.97 846.68 246.68 C 841.08 266.38 847.48 303.22 816.00 300.00
M 1159.00 18.00 
C 1176.33 19.68 1192.28 27.73 1206.25 38.75 C 1220.22 49.77 1228.53 62.21 1235.31 78.69 C 1242.08 95.17 1242.27 122.40 1239.00 140.00 C 1235.73 157.61 1229.43 174.99 1220.70 189.69 C 1211.97 204.40 1204.55 219.38 1193.75 231.75 C 1182.95 244.11 1175.02 260.04 1163.70 270.70 C 1152.38 281.35 1143.03 298.40 1131.75 306.75 C 1120.48 315.11 1108.17 342.24 1093.26 332.74 C 1078.35 323.24 1079.70 300.20 1071.68 285.32 C 1063.66 270.44 1061.69 250.29 1055.68 233.32 C 1049.67 216.36 1046.57 194.67 1044.01 175.99 C 1041.45 157.32 1042.29 129.14 1046.33 111.33 C 1050.37 93.52 1056.87 78.50 1066.92 63.92 C 1076.97 49.34 1087.72 39.59 1103.08 31.08 C 1118.43 22.56 1140.40 16.20 1159.00 18.00
M 443.00 312.00 
C 440.26 315.21 437.36 318.50 434.00 321.00
C 424.54 328.04 416.73 333.41 404.99 335.99 C 393.26 338.57 377.46 335.44 366.78 331.22 C 356.09 327.00 345.27 321.62 344.00 309.00 C 342.74 296.38 349.33 285.34 354.75 274.75 C 360.18 264.16 378.25 263.14 382.75 274.25 C 387.26 285.36 400.05 294.18 406.30 282.30 C 412.56 270.42 395.39 265.69 389.30 257.70 C 383.22 249.71 373.02 242.75 370.08 231.92 C 367.13 221.10 369.40 206.01 373.32 195.32 C 377.24 184.63 381.70 175.19 389.75 166.75 C 397.81 158.31 405.52 152.61 416.07 148.07 C 426.63 143.54 444.00 142.56 455.07 145.93 C 466.14 149.29 477.82 151.96 480.98 165.02 C 484.13 178.09 480.30 190.49 476.67 203.67 C 473.05 216.86 461.37 219.68 447.00 219.00 C 432.63 218.32 430.51 202.74 435.00 190.00
C 413.28 195.44 420.89 221.41 433.77 233.23 C 446.65 245.05 456.26 263.21 458.00 280.00
C 466.84 257.43 475.90 231.88 485.98 209.98 C 496.05 188.07 503.60 160.95 514.32 140.32 C 525.05 119.69 526.73 85.67 549.22 76.22 C 571.71 66.78 616.49 72.53 613.22 102.22 C 609.95 131.91 609.31 163.89 607.00 194.00 C 604.69 224.11 601.02 256.27 602.00 286.00
C 603.85 269.40 608.79 254.11 611.78 237.78 C 614.76 221.45 619.19 205.37 621.93 188.93 C 624.66 172.49 630.80 158.02 631.98 140.98 C 633.15 123.93 642.72 109.10 641.00 91.00 C 639.28 72.90 647.96 58.22 666.00 58.00 C 684.04 57.78 702.63 61.89 703.00 80.00 C 703.37 98.11 693.38 108.87 690.22 125.22 C 687.06 141.58 681.42 156.06 678.01 172.01 C 674.59 187.95 671.18 203.54 667.07 219.07 C 662.97 234.60 663.40 254.08 657.68 268.68 C 651.96 283.28 656.01 303.19 644.92 313.92 C 633.83 324.64 609.48 316.65 603.00 305.00
C 601.33 312.01 597.51 327.79 586.78 327.78 C 576.04 327.77 562.94 329.75 555.75 320.25 C 548.56 310.75 548.00 301.21 550.00 287.00 C 552.00 272.79 537.75 277.63 526.00 278.00 C 514.25 278.37 507.81 284.66 504.68 295.68 C 501.54 306.69 500.52 314.74 494.70 324.70 C 488.87 334.65 474.66 332.54 465.78 329.22 C 456.90 325.90 445.22 319.58 447.00 308.00
C 445.43 308.96 443.75 310.32 443.00 312.00
M 226.00 188.00 
C 223.24 191.23 220.30 194.39 217.00 197.00
C 210.09 202.46 203.24 208.15 196.00 213.00
C 227.08 218.86 231.56 255.87 220.23 279.23 C 208.90 302.59 194.76 322.08 172.75 336.75 C 150.75 351.43 123.80 361.85 98.99 367.99 C 74.19 374.13 30.37 388.87 26.00 352.00
C 25.49 348.85 25.50 346.09 26.00 343.00
C 26.69 330.34 35.89 317.15 50.00 318.00
C 59.99 265.32 77.79 214.80 91.00 163.00
C 60.10 168.57 64.07 117.34 88.02 109.02 C 111.98 100.71 142.94 93.90 169.00 92.00 C 195.06 90.10 223.30 93.77 238.75 117.25 C 254.20 140.73 241.84 168.73 226.00 188.00
M 770.00 119.00 
C 783.43 120.92 795.50 126.60 802.30 139.70 C 809.11 152.79 807.02 171.43 803.22 185.22 C 799.43 199.01 792.22 208.30 783.23 219.23 C 774.24 230.16 761.15 234.03 749.78 239.78 C 738.40 245.52 711.15 238.71 714.00 257.00 C 716.85 275.29 736.66 266.10 746.70 259.70 C 756.74 253.30 772.67 242.29 782.75 254.25 C 792.83 266.21 788.81 281.63 776.75 289.75 C 764.69 297.88 755.41 303.91 741.93 307.93 C 728.45 311.95 709.04 316.11 695.98 310.02 C 682.91 303.94 673.64 296.69 669.22 282.78 C 664.81 268.86 667.09 246.49 667.99 231.99 C 668.90 217.50 674.74 204.00 680.31 191.31 C 685.88 178.61 693.05 168.94 700.77 157.77 C 708.49 146.60 715.79 138.31 727.08 130.08 C 738.38 121.86 755.13 116.88 770.00 119.00
M 290.00 331.00 
C 282.96 335.53 278.00 341.28 270.31 345.31 C 262.61 349.33 250.10 352.35 241.78 348.22 C 233.45 344.10 228.21 339.97 222.70 332.30 C 217.19 324.64 216.70 312.33 218.99 302.99 C 221.28 293.65 222.74 283.35 224.98 273.98 C 227.21 264.60 229.31 255.50 231.00 246.00 C 232.68 236.49 236.67 227.60 237.99 217.99 C 239.31 208.39 244.39 199.78 244.98 189.98 C 245.56 180.17 248.44 171.81 258.22 168.22 C 268.01 164.64 278.29 164.64 288.07 166.93 C 297.85 169.22 303.04 178.07 300.22 187.22 C 297.40 196.37 294.42 205.46 292.22 214.22 C 290.02 222.99 285.99 232.96 284.02 241.02 C 282.06 249.09 275.93 260.27 275.22 267.22 C 274.52 274.17 264.43 290.97 272.03 292.97 C 279.63 294.97 285.04 282.28 290.75 277.75 C 296.47 273.22 300.12 261.81 301.98 253.98 C 303.83 246.15 305.98 234.35 308.98 225.98 C 311.97 217.60 311.90 206.40 315.98 197.98 C 320.05 189.55 320.21 178.80 322.93 169.93 C 325.64 161.05 335.68 156.28 345.00 158.00 C 354.32 159.72 364.74 158.32 372.75 165.25 C 380.75 172.19 376.92 181.82 373.08 190.08 C 369.23 198.33 368.91 208.37 364.68 216.68 C 360.45 224.99 360.84 234.15 356.68 242.68 C 352.51 251.20 352.73 261.15 349.02 270.02 C 345.32 278.90 344.64 288.03 341.22 297.22 C 337.81 306.42 337.00 317.03 336.07 327.07 C 335.15 337.12 324.03 341.76 315.00 341.00 C 305.97 340.24 291.04 343.92 290.00 331.00
M 1095.00 413.00 
C 1091.75 413.67 1089.16 413.57 1086.00 413.00
C 1049.32 410.50 1051.98 344.81 1090.00 345.00 C 1128.03 345.19 1131.62 405.42 1095.00 413.00 Z"/>
</g>
<g fill="#000000" fill-opacity="1.00" stroke="None">
<path d="
M 816.00 131.00 
C 815.87 137.41 815.81 144.32 815.00 150.00
C 814.33 167.43 806.90 186.21 804.00 203.00 C 801.10 219.78 796.68 241.02 794.00 257.00 C 791.31 272.97 782.23 295.49 804.00 300.00
C 807.93 300.36 812.06 300.00 816.00 300.00
C 847.48 303.22 841.08 266.38 846.68 246.68 C 852.28 226.97 855.44 201.33 869.08 185.08 C 882.73 168.84 894.75 153.10 915.00 147.00
C 913.03 157.18 910.21 167.13 906.93 176.93 C 903.64 186.72 902.30 196.70 899.78 206.78 C 897.26 216.86 895.02 227.24 893.78 237.78 C 892.53 248.32 890.81 261.50 893.02 271.98 C 895.23 282.45 900.72 288.14 910.78 291.22 C 920.83 294.31 933.72 292.90 943.78 290.78 C 953.84 288.65 960.48 284.02 969.30 279.30 C 978.13 274.58 982.91 265.44 983.00 256.00 C 983.09 246.56 976.60 233.77 967.67 235.67 C 958.74 237.58 945.98 246.91 944.00 235.00 C 942.02 223.09 949.34 214.82 950.00 204.00 C 950.67 193.19 954.79 184.23 957.07 174.07 C 959.35 163.91 961.12 154.39 964.70 144.70 C 968.27 135.00 981.18 134.23 990.00 133.00 C 998.81 131.77 1007.93 126.23 1011.75 117.75 C 1015.56 109.26 1022.05 97.63 1016.92 88.08 C 1011.80 78.52 1000.01 79.51 989.07 83.07 C 978.13 86.64 982.02 72.58 987.07 64.07 C 992.13 55.56 993.17 46.54 997.22 37.22 C 1001.27 27.90 998.28 16.83 987.01 13.99 C 975.73 11.15 965.27 16.06 954.00 16.00 C 942.73 15.94 935.71 23.96 936.00 35.00 C 936.28 46.04 932.63 55.68 929.98 65.98 C 927.32 76.27 923.29 84.00 922.00 95.00 C 920.71 105.99 904.14 102.26 895.68 105.68 C 887.22 109.10 881.57 116.55 875.00 122.00
C 872.06 103.71 856.30 108.05 841.00 107.00 C 825.70 105.95 816.31 115.45 816.00 131.00
M 921.00 142.00 
C 908.75 141.53 897.89 149.47 889.25 157.25 C 880.60 165.03 873.11 171.83 866.25 181.25 C 859.39 190.67 854.08 201.08 850.22 212.22 C 846.36 223.37 846.04 239.29 841.02 250.02 C 836.01 260.76 841.58 281.07 833.75 289.75 C 825.91 298.42 804.64 301.18 796.75 291.25 C 788.87 281.32 798.91 264.25 799.00 252.00 C 799.09 239.75 805.72 226.03 806.93 212.93 C 808.14 199.83 813.24 187.91 814.99 173.99 C 816.75 160.08 822.32 148.11 820.00 132.00 C 817.68 115.89 832.21 110.64 846.00 111.00 C 859.79 111.36 877.52 113.50 869.00 132.00
C 877.34 133.47 878.95 122.51 887.25 116.25 C 895.54 109.99 904.04 106.44 916.00 107.00 C 927.96 107.56 925.96 91.20 929.78 82.78 C 933.59 74.36 934.79 60.65 938.00 52.00 C 941.20 43.35 936.31 26.81 946.08 22.08 C 955.85 17.36 967.66 19.91 979.00 17.00 C 990.35 14.09 998.68 29.02 992.68 37.68 C 986.67 46.34 987.97 57.07 981.69 64.69 C 975.42 72.32 975.28 90.91 985.67 88.67 C 996.06 86.43 1012.96 81.94 1014.00 94.00 C 1015.03 106.06 1010.34 113.37 1003.75 121.75 C 997.15 130.12 985.68 129.62 975.78 131.78 C 965.88 133.93 958.84 142.13 957.67 152.67 C 956.50 163.21 952.94 173.17 950.07 183.07 C 947.21 192.98 945.69 204.44 943.07 214.07 C 940.46 223.71 936.66 238.03 945.08 244.92 C 953.50 251.81 967.28 233.74 974.25 241.75 C 981.21 249.77 980.31 262.25 973.75 269.75 C 967.19 277.26 958.76 281.02 949.32 284.32 C 939.89 287.62 927.36 289.59 916.93 288.07 C 906.50 286.55 898.35 281.26 897.01 269.99 C 895.67 258.72 896.20 245.01 898.00 234.00 C 899.80 222.99 903.04 213.63 904.98 202.98 C 906.92 192.32 909.88 183.15 912.93 172.93 C 915.97 162.70 918.74 152.46 921.00 142.00 Z"/>
</g>
<g fill="#BF1F1F" fill-opacity="1.00" stroke="None">
<path d="
M 921.00 142.00 
C 918.74 152.46 915.97 162.70 912.93 172.93 C 909.88 183.15 906.92 192.32 904.98 202.98 C 903.04 213.63 899.80 222.99 898.00 234.00 C 896.20 245.01 895.67 258.72 897.01 269.99 C 898.35 281.26 906.50 286.55 916.93 288.07 C 927.36 289.59 939.89 287.62 949.32 284.32 C 958.76 281.02 967.19 277.26 973.75 269.75 C 980.31 262.25 981.21 249.77 974.25 241.75 C 967.28 233.74 953.50 251.81 945.08 244.92 C 936.66 238.03 940.46 223.71 943.07 214.07 C 945.69 204.44 947.21 192.98 950.07 183.07 C 952.94 173.17 956.50 163.21 957.67 152.67 C 958.84 142.13 965.88 133.93 975.78 131.78 C 985.68 129.62 997.15 130.12 1003.75 121.75 C 1010.34 113.37 1015.03 106.06 1014.00 94.00 C 1012.96 81.94 996.06 86.43 985.67 88.67 C 975.28 90.91 975.42 72.32 981.69 64.69 C 987.97 57.07 986.67 46.34 992.68 37.68 C 998.68 29.02 990.35 14.09 979.00 17.00 C 967.66 19.91 955.85 17.36 946.08 22.08 C 936.31 26.81 941.20 43.35 938.00 52.00 C 934.79 60.65 933.59 74.36 929.78 82.78 C 925.96 91.20 927.96 107.56 916.00 107.00 C 904.04 106.44 895.54 109.99 887.25 116.25 C 878.95 122.51 877.34 133.47 869.00 132.00
C 877.52 113.50 859.79 111.36 846.00 111.00 C 832.21 110.64 817.68 115.89 820.00 132.00 C 822.32 148.11 816.75 160.08 814.99 173.99 C 813.24 187.91 808.14 199.83 806.93 212.93 C 805.72 226.03 799.09 239.75 799.00 252.00 C 798.91 264.25 788.87 281.32 796.75 291.25 C 804.64 301.18 825.91 298.42 833.75 289.75 C 841.58 281.07 836.01 260.76 841.02 250.02 C 846.04 239.29 846.36 223.37 850.22 212.22 C 854.08 201.08 859.39 190.67 866.25 181.25 C 873.11 171.83 880.60 165.03 889.25 157.25 C 897.89 149.47 908.75 141.53 921.00 142.00 Z"/>
</g>
<g fill="#050303" fill-opacity="1.00" stroke="None">
<path d="
M 1159.00 18.00 
C 1140.40 16.20 1118.43 22.56 1103.08 31.08 C 1087.72 39.59 1076.97 49.34 1066.92 63.92 C 1056.87 78.50 1050.37 93.52 1046.33 111.33 C 1042.29 129.14 1041.45 157.32 1044.01 175.99 C 1046.57 194.67 1049.67 216.36 1055.68 233.32 C 1061.69 250.29 1063.66 270.44 1071.68 285.32 C 1079.70 300.20 1078.35 323.24 1093.26 332.74 C 1108.17 342.24 1120.48 315.11 1131.75 306.75 C 1143.03 298.40 1152.38 281.35 1163.70 270.70 C 1175.02 260.04 1182.95 244.11 1193.75 231.75 C 1204.55 219.38 1211.97 204.40 1220.70 189.69 C 1229.43 174.99 1235.73 157.61 1239.00 140.00 C 1242.27 122.40 1242.08 95.17 1235.31 78.69 C 1228.53 62.21 1220.22 49.77 1206.25 38.75 C 1192.28 27.73 1176.33 19.68 1159.00 18.00
M 1165.00 23.00 
C 1179.20 25.03 1191.97 33.40 1204.08 41.92 C 1216.19 50.43 1221.97 61.88 1228.92 75.08 C 1235.88 88.27 1237.57 109.61 1236.07 125.07 C 1234.58 140.54 1231.12 158.13 1224.70 171.69 C 1218.27 185.26 1211.31 197.60 1203.75 209.75 C 1196.18 221.89 1187.66 232.50 1179.25 243.25 C 1170.83 254.00 1162.29 266.74 1152.75 275.75 C 1143.21 284.77 1135.66 299.87 1125.75 306.75 C 1115.84 313.63 1104.87 337.71 1093.25 326.75 C 1081.62 315.80 1083.93 299.16 1076.23 285.77 C 1068.53 272.38 1068.04 255.34 1062.22 240.78 C 1056.41 226.21 1054.48 209.68 1051.02 193.98 C 1047.57 178.27 1046.43 155.48 1047.00 139.00 C 1047.57 122.52 1051.51 105.60 1057.32 91.32 C 1063.13 77.05 1069.53 65.95 1079.77 54.77 C 1090.01 43.59 1099.28 36.16 1113.23 30.23 C 1127.18 24.29 1148.78 20.68 1165.00 23.00 Z"/>
</g>
<g fill="#BF1F1F" fill-opacity="1.00" stroke="None">
<path d="
M 1165.00 23.00 
C 1148.78 20.68 1127.18 24.29 1113.23 30.23 C 1099.28 36.16 1090.01 43.59 1079.77 54.77 C 1069.53 65.95 1063.13 77.05 1057.32 91.32 C 1051.51 105.60 1047.57 122.52 1047.00 139.00 C 1046.43 155.48 1047.57 178.27 1051.02 193.98 C 1054.48 209.68 1056.41 226.21 1062.22 240.78 C 1068.04 255.34 1068.53 272.38 1076.23 285.77 C 1083.93 299.16 1081.62 315.80 1093.25 326.75 C 1104.87 337.71 1115.84 313.63 1125.75 306.75 C 1135.66 299.87 1143.21 284.77 1152.75 275.75 C 1162.29 266.74 1170.83 254.00 1179.25 243.25 C 1187.66 232.50 1196.18 221.89 1203.75 209.75 C 1211.31 197.60 1218.27 185.26 1224.70 171.69 C 1231.12 158.13 1234.58 140.54 1236.07 125.07 C 1237.57 109.61 1235.88 88.27 1228.92 75.08 C 1221.97 61.88 1216.19 50.43 1204.08 41.92 C 1191.97 33.40 1179.20 25.03 1165.00 23.00
M 1092.00 136.00 
C 1091.60 132.68 1091.53 129.28 1092.00 126.00
C 1093.30 91.81 1135.00 56.72 1167.23 76.77 C 1199.45 96.82 1198.88 144.74 1171.25 169.25 C 1143.61 193.76 1092.81 176.42 1092.00 136.00 Z"/>
</g>
<g fill="#000000" fill-opacity="1.00" stroke="None">
<path d="
M 434.00 321.00 
C 436.97 318.41 440.23 314.77 443.00 312.00
C 443.75 310.32 445.43 308.96 447.00 308.00
C 445.22 319.58 456.90 325.90 465.78 329.22 C 474.66 332.54 488.87 334.65 494.70 324.70 C 500.52 314.74 501.54 306.69 504.68 295.68 C 507.81 284.66 514.25 278.37 526.00 278.00 C 537.75 277.63 552.00 272.79 550.00 287.00 C 548.00 301.21 548.56 310.75 555.75 320.25 C 562.94 329.75 576.04 327.77 586.78 327.78 C 597.51 327.79 601.33 312.01 603.00 305.00
C 609.48 316.65 633.83 324.64 644.92 313.92 C 656.01 303.19 651.96 283.28 657.68 268.68 C 663.40 254.08 662.97 234.60 667.07 219.07 C 671.18 203.54 674.59 187.95 678.01 172.01 C 681.42 156.06 687.06 141.58 690.22 125.22 C 693.38 108.87 703.37 98.11 703.00 80.00 C 702.63 61.89 684.04 57.78 666.00 58.00 C 647.96 58.22 639.28 72.90 641.00 91.00 C 642.72 109.10 633.15 123.93 631.98 140.98 C 630.80 158.02 624.66 172.49 621.93 188.93 C 619.19 205.37 614.76 221.45 611.78 237.78 C 608.79 254.11 603.85 269.40 602.00 286.00
C 601.02 256.27 604.69 224.11 607.00 194.00 C 609.31 163.89 609.95 131.91 613.22 102.22 C 616.49 72.53 571.71 66.78 549.22 76.22 C 526.73 85.67 525.05 119.69 514.32 140.32 C 503.60 160.95 496.05 188.07 485.98 209.98 C 475.90 231.88 466.84 257.43 458.00 280.00
C 456.26 263.21 446.65 245.05 433.77 233.23 C 420.89 221.41 413.28 195.44 435.00 190.00
C 430.51 202.74 432.63 218.32 447.00 219.00 C 461.37 219.68 473.05 216.86 476.67 203.67 C 480.30 190.49 484.13 178.09 480.98 165.02 C 477.82 151.96 466.14 149.29 455.07 145.93 C 444.00 142.56 426.63 143.54 416.07 148.07 C 405.52 152.61 397.81 158.31 389.75 166.75 C 381.70 175.19 377.24 184.63 373.32 195.32 C 369.40 206.01 367.13 221.10 370.08 231.92 C 373.02 242.75 383.22 249.71 389.30 257.70 C 395.39 265.69 412.56 270.42 406.30 282.30 C 400.05 294.18 387.26 285.36 382.75 274.25 C 378.25 263.14 360.18 264.16 354.75 274.75 C 349.33 285.34 342.74 296.38 344.00 309.00 C 345.27 321.62 356.09 327.00 366.78 331.22 C 377.46 335.44 393.26 338.57 404.99 335.99 C 416.73 333.41 424.54 328.04 434.00 321.00
M 682.00 63.00 
C 696.68 65.38 702.10 79.43 696.07 92.07 C 690.05 104.72 688.84 116.65 684.68 129.68 C 680.52 142.71 676.99 154.55 674.07 168.07 C 671.16 181.60 667.11 195.02 665.00 209.00 C 662.90 222.99 657.08 235.12 657.00 250.00 C 656.92 264.88 646.62 273.96 648.00 290.00 C 649.38 306.04 639.87 316.89 622.98 313.02 C 606.08 309.16 602.90 298.51 606.78 283.78 C 610.66 269.05 610.58 256.80 614.93 242.93 C 619.28 229.06 619.18 215.79 623.00 202.00 C 626.81 188.20 628.53 174.95 631.99 160.99 C 635.45 147.03 636.83 134.42 639.99 119.99 C 643.16 105.56 647.84 94.42 647.00 78.00 C 646.15 61.58 668.23 60.76 682.00 63.00
M 585.00 323.00 
C 581.77 323.67 579.13 323.51 576.00 323.00
C 566.49 322.48 558.64 320.90 555.22 310.78 C 551.80 300.66 556.52 289.67 555.00 279.00 C 553.48 268.33 535.84 273.00 529.00 273.00
C 526.71 273.22 522.89 273.74 520.00 274.00
C 503.10 277.50 498.60 294.49 496.02 311.02 C 493.45 327.56 469.66 332.84 456.92 320.08 C 444.18 307.33 458.62 291.39 462.98 276.98 C 467.33 262.56 476.27 248.00 481.31 233.31 C 486.34 218.61 493.71 205.01 498.92 189.92 C 504.13 174.83 511.95 161.69 516.93 145.93 C 521.90 130.16 531.37 119.69 533.93 101.93 C 536.49 84.16 554.98 76.51 572.00 78.00 C 589.02 79.49 611.67 81.09 609.00 102.00 C 606.33 122.91 606.63 140.02 604.67 159.67 C 602.71 179.32 603.02 197.90 600.22 216.22 C 597.42 234.54 601.12 258.45 597.00 275.00 C 592.88 291.55 606.51 318.55 585.00 323.00
M 446.00 148.00 
C 456.63 149.52 468.79 151.58 475.30 162.70 C 481.81 173.82 475.36 185.99 473.07 199.07 C 470.79 212.16 459.57 215.95 445.33 214.67 C 431.09 213.39 445.31 184.68 432.33 185.33 C 419.35 185.99 415.20 204.06 417.00 214.00 C 418.80 223.94 428.55 231.76 434.75 240.25 C 440.96 248.74 448.84 257.68 451.32 268.68 C 453.80 279.68 450.84 294.82 443.75 303.75 C 436.65 312.67 430.67 318.93 420.92 324.92 C 411.17 330.91 396.86 335.17 385.00 332.00 C 373.14 328.83 363.86 327.47 353.75 319.25 C 343.65 311.02 350.31 296.35 353.31 286.31 C 356.30 276.26 368.27 265.03 376.75 274.25 C 385.24 283.46 387.90 296.29 401.68 291.68 C 415.45 287.07 413.11 273.34 404.25 265.75 C 395.39 258.16 390.20 252.42 382.08 243.92 C 373.96 235.42 371.26 220.58 374.33 209.33 C 377.39 198.08 380.04 187.21 386.77 177.77 C 393.51 168.33 399.25 162.19 409.23 156.23 C 419.21 150.27 433.60 146.23 446.00 148.00 Z"/>
</g>
<g fill="#BF1F1F" fill-opacity="1.00" stroke="None">
<path d="
M 682.00 63.00 
C 668.23 60.76 646.15 61.58 647.00 78.00 C 647.84 94.42 643.16 105.56 639.99 119.99 C 636.83 134.42 635.45 147.03 631.99 160.99 C 628.53 174.95 626.81 188.20 623.00 202.00 C 619.18 215.79 619.28 229.06 614.93 242.93 C 610.58 256.80 610.66 269.05 606.78 283.78 C 602.90 298.51 606.08 309.16 622.98 313.02 C 639.87 316.89 649.38 306.04 648.00 290.00 C 646.62 273.96 656.92 264.88 657.00 250.00 C 657.08 235.12 662.90 222.99 665.00 209.00 C 667.11 195.02 671.16 181.60 674.07 168.07 C 676.99 154.55 680.52 142.71 684.68 129.68 C 688.84 116.65 690.05 104.72 696.07 92.07 C 702.10 79.43 696.68 65.38 682.00 63.00 Z"/>
</g>
<g fill="#050303" fill-opacity="1.00" stroke="None">
<path d="
M 1092.00 126.00 
C 1091.87 129.31 1091.93 132.69 1092.00 136.00
C 1092.81 176.42 1143.61 193.76 1171.25 169.25 C 1198.88 144.74 1199.45 96.82 1167.23 76.77 C 1135.00 56.72 1093.30 91.81 1092.00 126.00
M 1155.00 76.00 
C 1181.64 80.77 1190.72 114.56 1185.07 138.07 C 1179.43 161.58 1155.28 182.19 1129.00 176.00 C 1102.72 169.82 1090.43 139.33 1098.32 115.32 C 1106.21 91.32 1127.96 71.15 1155.00 76.00 Z"/>
</g>
<g fill="#FDFDFD" fill-opacity="1.00" stroke="None">
<path d="
M 1155.00 76.00 
C 1127.96 71.15 1106.21 91.32 1098.32 115.32 C 1090.43 139.33 1102.72 169.82 1129.00 176.00 C 1155.28 182.19 1179.43 161.58 1185.07 138.07 C 1190.72 114.56 1181.64 80.77 1155.00 76.00 Z"/>
</g>
<g fill="#BF1F1F" fill-opacity="1.00" stroke="None">
<path d="
M 520.00 274.00 
C 522.64 273.45 525.74 273.00 529.00 273.00
C 535.84 273.00 553.48 268.33 555.00 279.00 C 556.52 289.67 551.80 300.66 555.22 310.78 C 558.64 320.90 566.49 322.48 576.00 323.00
C 578.90 323.16 582.11 323.26 585.00 323.00
C 606.51 318.55 592.88 291.55 597.00 275.00 C 601.12 258.45 597.42 234.54 600.22 216.22 C 603.02 197.90 602.71 179.32 604.67 159.67 C 606.63 140.02 606.33 122.91 609.00 102.00 C 611.67 81.09 589.02 79.49 572.00 78.00 C 554.98 76.51 536.49 84.16 533.93 101.93 C 531.37 119.69 521.90 130.16 516.93 145.93 C 511.95 161.69 504.13 174.83 498.92 189.92 C 493.71 205.01 486.34 218.61 481.31 233.31 C 476.27 248.00 467.33 262.56 462.98 276.98 C 458.62 291.39 444.18 307.33 456.92 320.08 C 469.66 332.84 493.45 327.56 496.02 311.02 C 498.60 294.49 503.10 277.50 520.00 274.00
M 557.00 229.00 
C 546.41 228.18 536.34 233.97 526.00 231.00
C 527.62 224.02 529.90 217.12 532.32 210.32 C 534.74 203.53 537.62 198.17 540.31 191.31 C 542.99 184.44 545.87 179.07 548.92 171.92 C 551.97 164.78 554.98 162.12 557.77 153.77 C 560.56 145.42 567.29 143.58 564.67 153.67 C 562.06 163.77 562.38 168.73 561.02 178.02 C 559.67 187.32 560.19 194.13 559.02 203.02 C 557.86 211.92 559.12 220.43 557.00 229.00 Z"/>
</g>
<g fill="#000000" fill-opacity="1.00" stroke="None">
<path d="
M 26.00 343.00 
C 25.84 345.94 25.84 349.06 26.00 352.00
C 30.37 388.87 74.19 374.13 98.99 367.99 C 123.80 361.85 150.75 351.43 172.75 336.75 C 194.76 322.08 208.90 302.59 220.23 279.23 C 231.56 255.87 227.08 218.86 196.00 213.00
C 203.24 208.15 210.09 202.46 217.00 197.00
C 219.96 194.26 223.18 190.82 226.00 188.00
C 241.84 168.73 254.20 140.73 238.75 117.25 C 223.30 93.77 195.06 90.10 169.00 92.00 C 142.94 93.90 111.98 100.71 88.02 109.02 C 64.07 117.34 60.10 168.57 91.00 163.00
C 77.79 214.80 59.99 265.32 50.00 318.00
C 35.89 317.15 26.69 330.34 26.00 343.00
M 182.00 219.00 
C 189.97 219.44 201.17 217.52 208.69 223.31 C 216.22 229.09 218.72 236.21 221.33 244.67 C 223.94 253.14 222.57 264.10 219.02 272.02 C 215.48 279.95 211.90 287.42 207.70 294.70 C 203.49 301.97 198.86 307.88 192.75 313.75 C 186.64 319.62 182.06 324.54 175.25 329.25 C 168.45 333.97 162.21 338.70 154.77 342.77 C 147.33 346.84 140.03 349.61 131.93 352.93 C 123.82 356.24 115.38 358.67 106.78 361.78 C 98.17 364.88 88.21 365.78 79.00 368.00 C 69.79 370.22 58.95 370.78 49.00 371.00 C 39.05 371.22 32.00 364.92 30.67 355.33 C 29.34 345.73 29.11 336.20 35.75 328.75 C 42.40 321.30 54.67 324.98 54.99 313.99 C 55.31 303.01 59.74 296.14 61.33 286.33 C 62.91 276.51 66.01 269.24 67.99 259.99 C 69.97 250.74 73.77 242.93 75.93 233.93 C 78.08 224.92 80.69 216.91 82.98 207.98 C 85.26 199.04 88.57 190.79 90.78 181.78 C 92.99 172.77 95.40 163.21 97.00 154.00
C 83.47 167.21 71.00 153.43 74.00 139.00 C 77.00 124.57 80.69 114.61 95.07 111.07 C 109.45 107.54 119.93 103.87 134.07 101.07 C 148.22 98.28 163.34 95.87 178.00 96.00 C 192.66 96.13 206.88 96.81 218.70 104.31 C 230.51 111.80 236.20 119.15 239.99 132.01 C 243.78 144.87 238.04 160.39 232.23 171.23 C 226.42 182.06 218.66 189.65 209.30 197.30 C 199.95 204.96 191.50 211.80 182.00 219.00 Z"/>
</g>
<g fill="#BF1F1F" fill-opacity="1.00" stroke="None">
<path d="
M 182.00 219.00 
C 191.50 211.80 199.95 204.96 209.30 197.30 C 218.66 189.65 226.42 182.06 232.23 171.23 C 238.04 160.39 243.78 144.87 239.99 132.01 C 236.20 119.15 230.51 111.80 218.70 104.31 C 206.88 96.81 192.66 96.13 178.00 96.00 C 163.34 95.87 148.22 98.28 134.07 101.07 C 119.93 103.87 109.45 107.54 95.07 111.07 C 80.69 114.61 77.00 124.57 74.00 139.00 C 71.00 153.43 83.47 167.21 97.00 154.00
C 95.40 163.21 92.99 172.77 90.78 181.78 C 88.57 190.79 85.26 199.04 82.98 207.98 C 80.69 216.91 78.08 224.92 75.93 233.93 C 73.77 242.93 69.97 250.74 67.99 259.99 C 66.01 269.24 62.91 276.51 61.33 286.33 C 59.74 296.14 55.31 303.01 54.99 313.99 C 54.67 324.98 42.40 321.30 35.75 328.75 C 29.11 336.20 29.34 345.73 30.67 355.33 C 32.00 364.92 39.05 371.22 49.00 371.00 C 58.95 370.78 69.79 370.22 79.00 368.00 C 88.21 365.78 98.17 364.88 106.78 361.78 C 115.38 358.67 123.82 356.24 131.93 352.93 C 140.03 349.61 147.33 346.84 154.77 342.77 C 162.21 338.70 168.45 333.97 175.25 329.25 C 182.06 324.54 186.64 319.62 192.75 313.75 C 198.86 307.88 203.49 301.97 207.70 294.70 C 211.90 287.42 215.48 279.95 219.02 272.02 C 222.57 264.10 223.94 253.14 221.33 244.67 C 218.72 236.21 216.22 229.09 208.69 223.31 C 201.17 217.52 189.97 219.44 182.00 219.00
M 124.00 205.00 
C 126.12 194.48 133.05 181.41 135.32 171.32 C 137.59 161.23 141.93 144.81 154.01 145.01 C 166.09 145.20 182.72 134.05 192.69 142.31 C 202.67 150.56 185.23 163.02 179.75 169.75 C 174.28 176.48 164.12 185.52 156.25 191.25 C 148.38 196.98 135.20 207.08 124.00 205.00
M 173.00 248.00 
C 189.64 250.38 186.52 268.91 174.75 276.75 C 162.98 284.59 158.51 292.26 144.92 297.92 C 131.32 303.58 124.27 309.49 107.98 312.98 C 91.68 316.46 100.30 292.26 103.98 281.98 C 107.65 271.69 110.55 252.78 126.07 253.07 C 141.60 253.37 157.20 245.74 173.00 248.00 Z"/>
</g>
<g fill="#000000" fill-opacity="1.00" stroke="None">
<path d="
M 770.00 119.00 
C 755.13 116.88 738.38 121.86 727.08 130.08 C 715.79 138.31 708.49 146.60 700.77 157.77 C 693.05 168.94 685.88 178.61 680.31 191.31 C 674.74 204.00 668.90 217.50 667.99 231.99 C 667.09 246.49 664.81 268.86 669.22 282.78 C 673.64 296.69 682.91 303.94 695.98 310.02 C 709.04 316.11 728.45 311.95 741.93 307.93 C 755.41 303.91 764.69 297.88 776.75 289.75 C 788.81 281.63 792.83 266.21 782.75 254.25 C 772.67 242.29 756.74 253.30 746.70 259.70 C 736.66 266.10 716.85 275.29 714.00 257.00 C 711.15 238.71 738.40 245.52 749.78 239.78 C 761.15 234.03 774.24 230.16 783.23 219.23 C 792.22 208.30 799.43 199.01 803.22 185.22 C 807.02 171.43 809.11 152.79 802.30 139.70 C 795.50 126.60 783.43 120.92 770.00 119.00
M 720.00 308.00 
C 716.01 308.57 711.95 308.64 708.00 308.00
C 695.04 307.30 684.32 300.20 677.08 288.92 C 669.85 277.64 670.72 257.73 671.00 244.00 C 671.28 230.27 675.35 215.16 679.93 202.93 C 684.51 190.69 690.42 180.07 697.75 169.75 C 705.08 159.43 710.49 149.77 720.25 141.25 C 730.00 132.73 739.57 124.87 753.00 124.00 C 766.43 123.14 783.96 123.76 793.75 134.25 C 803.55 144.74 803.72 161.23 801.22 174.22 C 798.72 187.21 794.59 198.81 786.25 209.25 C 777.90 219.68 769.81 226.21 757.92 231.92 C 746.04 237.64 730.25 240.08 717.00 241.00 C 703.75 241.92 709.71 273.34 722.23 272.77 C 734.75 272.20 747.85 267.04 758.70 258.69 C 769.54 250.35 784.88 254.12 784.00 270.00 C 783.12 285.89 769.81 288.97 758.92 295.92 C 748.04 302.88 733.01 307.50 720.00 308.00 Z"/>
</g>
<g fill="#BF1F1F" fill-opacity="1.00" stroke="None">
<path d="
M 708.00 308.00 
C 711.94 308.21 716.06 308.15 720.00 308.00
C 733.01 307.50 748.04 302.88 758.92 295.92 C 769.81 288.97 783.12 285.89 784.00 270.00 C 784.88 254.12 769.54 250.35 758.70 258.69 C 747.85 267.04 734.75 272.20 722.23 272.77 C 709.71 273.34 703.75 241.92 717.00 241.00 C 730.25 240.08 746.04 237.64 757.92 231.92 C 769.81 226.21 777.90 219.68 786.25 209.25 C 794.59 198.81 798.72 187.21 801.22 174.22 C 803.72 161.23 803.55 144.74 793.75 134.25 C 783.96 123.76 766.43 123.14 753.00 124.00 C 739.57 124.87 730.00 132.73 720.25 141.25 C 710.49 149.77 705.08 159.43 697.75 169.75 C 690.42 180.07 684.51 190.69 679.93 202.93 C 675.35 215.16 671.28 230.27 671.00 244.00 C 670.72 257.73 669.85 277.64 677.08 288.92 C 684.32 300.20 695.04 307.30 708.00 308.00
M 765.00 158.00 
C 773.35 160.78 768.10 176.47 765.08 182.08 C 762.05 187.68 756.64 196.55 750.75 200.75 C 744.87 204.96 736.78 214.04 728.33 210.67 C 719.88 207.30 725.16 194.20 729.92 188.92 C 734.68 183.64 738.06 174.60 743.25 169.25 C 748.44 163.90 756.44 155.15 765.00 158.00 Z"/>
</g>
<g fill="#570E0E" fill-opacity="1.00" stroke="None">
<path d="
M 1092.00 136.00 
C 1091.93 132.69 1091.87 129.31 1092.00 126.00
C 1091.53 129.28 1091.60 132.68 1092.00 136.00 Z"/>
</g>
<g fill="#7B7B7B" fill-opacity="1.00" stroke="None">
<path d="
M 815.00 150.00 
C 815.81 144.32 815.87 137.41 816.00 131.00
C 815.32 136.65 815.24 143.63 815.00 150.00 Z"/>
</g>
<g fill="#000000" fill-opacity="1.00" stroke="None">
<path d="
M 124.00 205.00 
C 135.20 207.08 148.38 196.98 156.25 191.25 C 164.12 185.52 174.28 176.48 179.75 169.75 C 185.23 163.02 202.67 150.56 192.69 142.31 C 182.72 134.05 166.09 145.20 154.01 145.01 C 141.93 144.81 137.59 161.23 135.32 171.32 C 133.05 181.41 126.12 194.48 124.00 205.00
M 130.00 201.00 
C 133.25 193.16 134.20 183.84 138.32 176.32 C 142.44 168.81 139.99 157.47 147.75 151.75 C 155.52 146.03 165.95 149.89 175.07 145.07 C 184.20 140.25 194.91 148.64 186.75 155.75 C 178.60 162.86 177.48 167.09 170.25 173.25 C 163.02 179.40 159.41 184.34 151.92 188.92 C 144.43 193.49 138.26 198.65 130.00 201.00 Z"/>
</g>
<g fill="#FAFAFA" fill-opacity="1.00" stroke="None">
<path d="
M 130.00 201.00 
C 138.26 198.65 144.43 193.49 151.92 188.92 C 159.41 184.34 163.02 179.40 170.25 173.25 C 177.48 167.09 178.60 162.86 186.75 155.75 C 194.91 148.64 184.20 140.25 175.07 145.07 C 165.95 149.89 155.52 146.03 147.75 151.75 C 139.99 157.47 142.44 168.81 138.32 176.32 C 134.20 183.84 133.25 193.16 130.00 201.00 Z"/>
</g>
<g fill="#000000" fill-opacity="1.00" stroke="None">
<path d="
M 557.00 229.00 
C 559.12 220.43 557.86 211.92 559.02 203.02 C 560.19 194.13 559.67 187.32 561.02 178.02 C 562.38 168.73 562.06 163.77 564.67 153.67 C 567.29 143.58 560.56 145.42 557.77 153.77 C 554.98 162.12 551.97 164.78 548.92 171.92 C 545.87 179.07 542.99 184.44 540.31 191.31 C 537.62 198.17 534.74 203.53 532.32 210.32 C 529.90 217.12 527.62 224.02 526.00 231.00
C 536.34 233.97 546.41 228.18 557.00 229.00
M 553.00 225.00 
C 545.71 224.49 539.36 227.72 532.00 227.00
C 537.37 205.01 548.67 184.98 557.00 164.00
C 557.67 183.42 554.24 204.87 553.00 225.00 Z"/>
</g>
<g fill="#BF1F1F" fill-opacity="1.00" stroke="None">
<path d="
M 446.00 148.00 
C 433.60 146.23 419.21 150.27 409.23 156.23 C 399.25 162.19 393.51 168.33 386.77 177.77 C 380.04 187.21 377.39 198.08 374.33 209.33 C 371.26 220.58 373.96 235.42 382.08 243.92 C 390.20 252.42 395.39 258.16 404.25 265.75 C 413.11 273.34 415.45 287.07 401.68 291.68 C 387.90 296.29 385.24 283.46 376.75 274.25 C 368.27 265.03 356.30 276.26 353.31 286.31 C 350.31 296.35 343.65 311.02 353.75 319.25 C 363.86 327.47 373.14 328.83 385.00 332.00 C 396.86 335.17 411.17 330.91 420.92 324.92 C 430.67 318.93 436.65 312.67 443.75 303.75 C 450.84 294.82 453.80 279.68 451.32 268.68 C 448.84 257.68 440.96 248.74 434.75 240.25 C 428.55 231.76 418.80 223.94 417.00 214.00 C 415.20 204.06 419.35 185.99 432.33 185.33 C 445.31 184.68 431.09 213.39 445.33 214.67 C 459.57 215.95 470.79 212.16 473.07 199.07 C 475.36 185.99 481.81 173.82 475.30 162.70 C 468.79 151.58 456.63 149.52 446.00 148.00 Z"/>
</g>
<g fill="#000000" fill-opacity="1.00" stroke="None">
<path d="
M 290.00 331.00 
C 291.04 343.92 305.97 340.24 315.00 341.00 C 324.03 341.76 335.15 337.12 336.07 327.07 C 337.00 317.03 337.81 306.42 341.22 297.22 C 344.64 288.03 345.32 278.90 349.02 270.02 C 352.73 261.15 352.51 251.20 356.68 242.68 C 360.84 234.15 360.45 224.99 364.68 216.68 C 368.91 208.37 369.23 198.33 373.08 190.08 C 376.92 181.82 380.75 172.19 372.75 165.25 C 364.74 158.32 354.32 159.72 345.00 158.00 C 335.68 156.28 325.64 161.05 322.93 169.93 C 320.21 178.80 320.05 189.55 315.98 197.98 C 311.90 206.40 311.97 217.60 308.98 225.98 C 305.98 234.35 303.83 246.15 301.98 253.98 C 300.12 261.81 296.47 273.22 290.75 277.75 C 285.04 282.28 279.63 294.97 272.03 292.97 C 264.43 290.97 274.52 274.17 275.22 267.22 C 275.93 260.27 282.06 249.09 284.02 241.02 C 285.99 232.96 290.02 222.99 292.22 214.22 C 294.42 205.46 297.40 196.37 300.22 187.22 C 303.04 178.07 297.85 169.22 288.07 166.93 C 278.29 164.64 268.01 164.64 258.22 168.22 C 248.44 171.81 245.56 180.17 244.98 189.98 C 244.39 199.78 239.31 208.39 237.99 217.99 C 236.67 227.60 232.68 236.49 231.00 246.00 C 229.31 255.50 227.21 264.60 224.98 273.98 C 222.74 283.35 221.28 293.65 218.99 302.99 C 216.70 312.33 217.19 324.64 222.70 332.30 C 228.21 339.97 233.45 344.10 241.78 348.22 C 250.10 352.35 262.61 349.33 270.31 345.31 C 278.00 341.28 282.96 335.53 290.00 331.00
M 321.00 336.00 
C 315.03 337.48 305.90 337.79 300.00 336.00
C 292.73 333.79 293.63 328.16 294.00 321.00
C 277.95 333.71 264.56 352.73 241.77 343.23 C 218.98 333.73 220.50 308.02 226.93 287.93 C 233.35 267.84 234.05 242.16 241.78 222.78 C 249.51 203.39 242.39 171.23 270.00 170.00
C 273.13 169.49 275.95 169.56 279.00 170.00
C 294.48 170.59 298.59 179.58 294.08 192.08 C 289.56 204.58 287.34 213.32 284.07 225.07 C 280.81 236.83 275.22 245.65 273.22 257.22 C 271.23 268.79 262.48 279.66 265.00 292.00 C 267.52 304.34 285.14 292.51 289.75 284.75 C 294.37 276.99 305.32 268.47 305.78 257.78 C 306.23 247.08 313.02 233.62 313.99 222.99 C 314.96 212.37 322.69 199.54 323.78 189.78 C 324.87 180.02 327.54 161.64 339.02 162.02 C 350.51 162.41 368.79 161.51 372.77 172.23 C 376.75 182.95 365.15 195.36 364.02 206.02 C 362.90 216.69 355.64 227.32 353.22 238.22 C 350.81 249.13 346.65 260.57 343.68 271.68 C 340.71 282.79 337.91 293.88 334.07 305.07 C 330.24 316.27 336.13 332.25 321.00 336.00 Z"/>
</g>
<g fill="#000000" fill-opacity="1.00" stroke="None">
<path d="
M 765.00 158.00 
C 756.44 155.15 748.44 163.90 743.25 169.25 C 738.06 174.60 734.68 183.64 729.92 188.92 C 725.16 194.20 719.88 207.30 728.33 210.67 C 736.78 214.04 744.87 204.96 750.75 200.75 C 756.64 196.55 762.05 187.68 765.08 182.08 C 768.10 176.47 773.35 160.78 765.00 158.00
M 763.00 162.00 
C 769.25 164.68 761.94 177.67 760.08 182.08 C 758.21 186.48 752.57 194.04 748.25 197.25 C 743.92 200.45 736.25 208.76 730.32 206.66 C 724.39 204.57 731.95 192.61 734.92 188.92 C 737.88 185.23 742.51 176.51 745.77 172.77 C 749.03 169.03 757.44 159.62 763.00 162.00 Z"/>
</g>
<g fill="#BF1F1F" fill-opacity="1.00" stroke="None">
<path d="
M 279.00 170.00 
C 276.04 169.89 272.95 169.84 270.00 170.00
C 242.39 171.23 249.51 203.39 241.78 222.78 C 234.05 242.16 233.35 267.84 226.93 287.93 C 220.50 308.02 218.98 333.73 241.77 343.23 C 264.56 352.73 277.95 333.71 294.00 321.00
C 293.63 328.16 292.73 333.79 300.00 336.00
C 306.06 337.02 314.89 336.76 321.00 336.00
C 336.13 332.25 330.24 316.27 334.07 305.07 C 337.91 293.88 340.71 282.79 343.68 271.68 C 346.65 260.57 350.81 249.13 353.22 238.22 C 355.64 227.32 362.90 216.69 364.02 206.02 C 365.15 195.36 376.75 182.95 372.77 172.23 C 368.79 161.51 350.51 162.41 339.02 162.02 C 327.54 161.64 324.87 180.02 323.78 189.78 C 322.69 199.54 314.96 212.37 313.99 222.99 C 313.02 233.62 306.23 247.08 305.78 257.78 C 305.32 268.47 294.37 276.99 289.75 284.75 C 285.14 292.51 267.52 304.34 265.00 292.00 C 262.48 279.66 271.23 268.79 273.22 257.22 C 275.22 245.65 280.81 236.83 284.07 225.07 C 287.34 213.32 289.56 204.58 294.08 192.08 C 298.59 179.58 294.48 170.59 279.00 170.00 Z"/>
</g>
<g fill="#F8F8F8" fill-opacity="1.00" stroke="None">
<path d="
M 763.00 162.00 
C 757.44 159.62 749.03 169.03 745.77 172.77 C 742.51 176.51 737.88 185.23 734.92 188.92 C 731.95 192.61 724.39 204.57 730.32 206.66 C 736.25 208.76 743.92 200.45 748.25 197.25 C 752.57 194.04 758.21 186.48 760.08 182.08 C 761.94 177.67 769.25 164.68 763.00 162.00 Z"/>
</g>
<g fill="#F7F7F7" fill-opacity="1.00" stroke="None">
<path d="
M 553.00 225.00 
C 554.24 204.87 557.67 183.42 557.00 164.00
C 548.67 184.98 537.37 205.01 532.00 227.00
C 539.36 227.72 545.71 224.49 553.00 225.00 Z"/>
</g>
<g fill="#641010" fill-opacity="1.00" stroke="None">
<path d="
M 270.00 170.00 
C 272.95 169.84 276.04 169.89 279.00 170.00
C 275.95 169.56 273.13 169.49 270.00 170.00 Z"/>
</g>
<g fill="#858585" fill-opacity="1.00" stroke="None">
<path d="
M 217.00 197.00 
C 220.30 194.39 223.24 191.23 226.00 188.00
C 223.18 190.82 219.96 194.26 217.00 197.00 Z"/>
</g>
<g fill="#000000" fill-opacity="1.00" stroke="None">
<path d="
M 173.00 248.00 
C 157.20 245.74 141.60 253.37 126.07 253.07 C 110.55 252.78 107.65 271.69 103.98 281.98 C 100.30 292.26 91.68 316.46 107.98 312.98 C 124.27 309.49 131.32 303.58 144.92 297.92 C 158.51 292.26 162.98 284.59 174.75 276.75 C 186.52 268.91 189.64 250.38 173.00 248.00
M 101.00 309.00 
C 103.67 296.44 108.08 286.28 110.33 273.33 C 112.58 260.37 128.06 255.52 139.22 256.22 C 150.38 256.92 168.48 246.10 178.23 254.77 C 187.97 263.44 171.01 273.96 163.77 279.77 C 156.53 285.58 145.62 293.99 135.77 297.77 C 125.93 301.55 112.52 309.44 101.00 309.00 Z"/>
</g>
<g fill="#FBFBFB" fill-opacity="1.00" stroke="None">
<path d="
M 101.00 309.00 
C 112.52 309.44 125.93 301.55 135.77 297.77 C 145.62 293.99 156.53 285.58 163.77 279.77 C 171.01 273.96 187.97 263.44 178.23 254.77 C 168.48 246.10 150.38 256.92 139.22 256.22 C 128.06 255.52 112.58 260.37 110.33 273.33 C 108.08 286.28 103.67 296.44 101.00 309.00 Z"/>
</g>
<g fill="#570E0E" fill-opacity="1.00" stroke="None">
<path d="
M 520.00 274.00 
C 522.89 273.74 526.71 273.22 529.00 273.00
C 525.74 273.00 522.64 273.45 520.00 274.00 Z"/>
</g>
<g fill="#808080" fill-opacity="1.00" stroke="None">
<path d="
M 816.00 300.00 
C 812.06 300.00 807.93 300.36 804.00 300.00
C 807.98 300.82 812.06 300.38 816.00 300.00 Z"/>
</g>
<g fill="#621010" fill-opacity="1.00" stroke="None">
<path d="
M 720.00 308.00 
C 716.06 308.15 711.94 308.21 708.00 308.00
C 711.95 308.64 716.01 308.57 720.00 308.00 Z"/>
</g>
<g fill="#858585" fill-opacity="1.00" stroke="None">
<path d="
M 434.00 321.00 
C 437.36 318.50 440.26 315.21 443.00 312.00
C 440.23 314.77 436.97 318.41 434.00 321.00 Z"/>
</g>
<g fill="#651010" fill-opacity="1.00" stroke="None">
<path d="
M 585.00 323.00 
C 582.11 323.26 578.90 323.16 576.00 323.00
C 579.13 323.51 581.77 323.67 585.00 323.00 Z"/>
</g>
<g fill="#5C0F0F" fill-opacity="1.00" stroke="None">
<path d="
M 321.00 336.00 
C 314.89 336.76 306.06 337.02 300.00 336.00
C 305.90 337.79 315.03 337.48 321.00 336.00 Z"/>
</g>
<g fill="#696969" fill-opacity="1.00" stroke="None">
<path d="
M 26.00 352.00 
C 25.84 349.06 25.84 345.94 26.00 343.00
C 25.50 346.09 25.49 348.85 26.00 352.00 Z"/>
</g>
<g fill="#000000" fill-opacity="1.00" stroke="None">
<path d="
M 1086.00 413.00 
C 1088.87 413.20 1092.13 413.26 1095.00 413.00
C 1131.62 405.42 1128.03 345.19 1090.00 345.00 C 1051.98 344.81 1049.32 410.50 1086.00 413.00
M 1096.00 349.00 
C 1129.38 354.98 1119.50 415.76 1085.00 409.00 C 1050.50 402.24 1061.63 342.84 1096.00 349.00 Z"/>
</g>
<g fill="#BE1F1F" fill-opacity="1.00" stroke="None">
<path d="
M 1096.00 349.00 
C 1061.63 342.84 1050.50 402.24 1085.00 409.00 C 1119.50 415.76 1129.38 354.98 1096.00 349.00 Z"/>
</g>
<g fill="#6F6F6F" fill-opacity="1.00" stroke="None">
<path d="
M 1095.00 413.00 
C 1092.13 413.26 1088.87 413.20 1086.00 413.00
C 1089.16 413.57 1091.75 413.67 1095.00 413.00 Z"/>
</g>
</svg>