<svg xmlns="http://www.w3.org/2000/svg" xmlns:v="https://svgstorm.com"
viewBox = "0 0 1536 1024"
width="1536"
height="1024">
<g fill="None" fill-opacity="0.0" stroke="#FEFEFE" stroke-opacity="1.00" stroke-width="0.3"><path d="
M 0.00 1024.00 
L 1536.00 1024.00
L 1536.00 0.00
L 0.00 0.00
L 0.00 1024.00
M 1020.00 449.00 
C 1010.71 449.68 1002.84 454.91 995.75 460.75 C 988.66 466.60 983.17 471.89 977.08 479.08 C 971.00 486.28 967.30 493.68 963.68 502.68 C 960.06 511.68 959.78 522.24 955.67 531.67 C 951.57 541.10 954.17 552.57 950.67 562.67 C 947.17 572.77 933.62 572.04 923.00 572.00 C 912.38 571.96 907.99 559.95 912.00 550.00 C 916.01 540.04 914.96 529.24 918.33 519.33 C 921.69 509.42 921.80 499.86 924.99 489.99 C 928.19 480.12 928.79 469.85 931.93 459.93 C 935.07 450.01 930.53 436.43 936.32 427.32 C 942.12 418.22 957.20 421.80 967.00 421.00 C 976.80 420.20 985.10 430.77 978.34 439.68
C 983.90 432.49 988.68 428.69 995.70 422.70 C 1002.72 416.71 1015.65 419.15 1024.00 416.00
C 1025.17 405.43 1028.24 397.94 1031.78 387.78 C 1035.31 377.61 1036.32 368.04 1037.78 356.78 C 1039.24 345.51 1056.75 349.79 1064.00 347.00 C 1071.25 344.21 1090.18 347.38 1087.67 357.67 C 1085.16 367.96 1081.35 375.52 1077.22 384.22 C 1073.10 392.92 1067.80 405.74 1078.01 403.01 C 1088.22 400.28 1103.41 397.45 1103.98 408.02 C 1104.55 418.60 1099.75 427.79 1092.92 433.92 C 1086.09 440.05 1073.53 438.53 1064.93 441.93 C 1056.32 445.32 1055.04 458.13 1053.02 467.02 C 1051.01 475.92 1046.27 487.67 1045.22 496.22 C 1044.17 504.78 1036.68 519.44 1042.26 526.74 C 1047.83 534.05 1064.76 517.11 1069.75 526.25 C 1074.75 535.39 1075.82 545.84 1067.25 552.25 C 1058.67 558.66 1052.99 561.16 1042.78 563.78 C 1032.56 566.39 1020.81 567.63 1010.31 563.69 C 999.80 559.76 998.54 548.42 999.00 538.00 C 999.46 527.58 1001.20 516.62 1003.78 506.78 C 1006.36 496.93 1008.18 486.89 1011.32 477.32 C 1014.46 467.75 1017.43 458.71 1020.00 449.00
M 1232.00 351.00 
C 1243.72 352.67 1256.22 358.71 1266.23 365.77 C 1276.24 372.83 1282.86 381.30 1288.77 392.23 C 1294.68 403.16 1297.10 419.36 1296.01 432.01 C 1294.92 444.66 1291.53 459.96 1286.03 471.03 C 1280.52 482.09 1274.30 491.98 1267.75 501.75 C 1261.19 511.51 1253.48 520.59 1246.25 529.25 C 1239.01 537.90 1231.23 548.01 1223.25 555.25 C 1215.26 562.49 1207.62 574.98 1199.25 580.25 C 1190.88 585.52 1181.34 604.36 1171.75 598.24 C 1162.17 592.13 1161.30 575.36 1155.68 565.32 C 1150.06 555.29 1147.34 540.67 1143.02 528.98 C 1138.71 517.28 1135.40 503.24 1132.67 490.33 C 1129.95 477.42 1128.31 458.79 1129.00 445.00 C 1129.69 431.21 1132.78 417.15 1138.31 405.31 C 1143.83 393.46 1149.05 385.51 1158.25 376.25 C 1167.45 366.99 1175.49 361.52 1187.68 356.68 C 1199.86 351.84 1217.81 348.97 1232.00 351.00
M 817.00 383.00 
C 829.33 385.00 836.03 394.39 831.02 406.02 C 826.02 417.66 824.35 425.34 820.68 436.68 C 817.01 448.01 813.93 457.73 811.22 469.22 C 808.51 480.71 805.51 490.29 803.07 502.07 C 800.64 513.85 797.55 524.47 796.00 537.00 C 794.46 549.54 788.26 556.43 788.67 570.67 C 789.08 584.91 776.60 588.52 762.99 585.01 C 749.38 581.49 745.62 574.39 748.98 561.98 C 752.33 549.56 752.95 540.02 756.33 528.33 C 759.70 516.64 761.00 505.49 764.00 494.00 C 767.00 482.50 768.83 472.30 771.93 460.93 C 775.03 449.56 775.43 437.55 779.33 426.33 C 783.22 415.10 783.56 403.63 784.00 392.00 C 784.44 380.37 809.39 381.76 817.00 383.00
M 729.00 395.00 
C 735.54 395.79 753.08 397.57 754.92 407.08 C 756.77 416.58 752.92 431.96 752.67 442.67 C 752.42 453.38 750.44 467.67 750.00 479.00 C 749.56 490.33 748.39 502.68 747.01 514.01 C 745.63 525.33 747.56 540.11 745.00 551.00 C 742.44 561.89 747.63 577.64 743.22 587.22 C 738.81 596.80 722.50 594.36 712.78 591.22 C 703.05 588.08 703.55 572.28 705.00 560.00 C 706.45 547.72 690.20 554.54 679.00 554.00 C 667.80 553.46 662.58 565.03 660.07 574.07 C 657.57 583.11 654.75 596.64 645.00 597.00 C 635.24 597.36 623.36 594.28 617.25 586.75 C 611.14 579.22 621.86 567.67 624.31 559.31 C 626.75 550.94 632.33 541.38 635.78 532.78 C 639.22 524.17 643.86 514.41 647.77 505.77 C 651.68 497.13 655.17 487.93 659.31 479.31 C 663.44 470.68 666.83 461.59 670.93 452.93 C 675.02 444.26 678.93 434.55 682.98 425.98 C 687.02 417.40 686.91 406.50 695.25 400.25 C 703.59 393.99 718.47 393.73 729.00 395.00
M 392.00 409.00 
C 418.09 409.00 444.90 429.48 437.22 456.22 C 429.55 482.97 410.94 491.82 391.00 507.00
C 415.04 503.64 428.13 530.13 420.07 549.07 C 412.02 568.02 403.44 581.03 386.75 593.75 C 370.07 606.48 355.27 613.38 334.98 619.98 C 314.68 626.57 292.12 632.36 269.00 632.00 C 245.88 631.64 246.78 586.65 273.00 590.00
C 282.29 545.87 298.57 503.59 310.00 460.00
C 296.23 468.31 288.28 458.43 290.78 445.78 C 293.28 433.13 294.91 424.80 307.68 421.68 C 320.44 418.56 328.15 415.74 340.67 413.67 C 353.20 411.60 364.86 408.54 378.00 409.00
C 382.40 408.57 387.66 408.58 392.00 409.00
M 845.00 528.00 
C 836.50 541.04 848.03 554.60 860.67 548.67 C 873.32 542.75 877.57 540.63 889.68 534.68 C 901.78 528.73 911.44 550.46 903.25 558.25 C 895.05 566.04 887.08 570.65 876.77 574.77 C 866.46 578.89 852.60 582.50 841.00 582.00 C 829.40 581.50 819.67 576.39 811.75 567.25 C 803.84 558.11 805.14 542.89 805.00 531.00 C 804.86 519.11 808.46 505.22 812.92 494.92 C 817.39 484.63 822.14 476.29 828.77 467.77 C 835.40 459.25 840.19 451.79 848.75 444.75 C 857.32 437.72 867.50 431.68 879.01 431.01 C 890.52 430.33 904.50 431.61 913.25 439.75 C 921.99 447.89 923.29 462.01 921.07 473.07 C 918.85 484.13 914.62 494.44 906.75 502.75 C 898.88 511.06 892.59 516.81 881.92 520.92 C 871.26 525.03 857.19 528.52 845.00 528.00
M 614.00 451.00 
C 622.30 452.19 635.44 454.55 640.30 463.70 C 645.17 472.84 639.95 486.70 637.22 497.22 C 634.49 507.75 618.39 508.91 607.98 506.02 C 597.56 503.13 611.70 480.49 600.93 483.93 C 590.16 487.36 586.42 501.27 591.75 509.25 C 597.09 517.22 603.61 523.52 609.92 531.08 C 616.23 538.64 621.89 549.48 620.00 560.00 C 618.11 570.52 613.26 578.05 605.25 585.25 C 597.24 592.44 590.26 596.80 579.93 599.93 C 569.59 603.06 555.58 600.09 545.93 597.07 C 536.28 594.05 524.47 586.94 527.00 576.00 C 529.53 565.06 531.77 556.44 540.75 549.75 C 549.73 543.07 558.11 553.99 563.25 562.75 C 568.40 571.50 587.53 561.26 580.08 551.92 C 572.63 542.58 566.81 540.45 559.25 532.75 C 551.68 525.05 546.19 515.87 548.33 505.33 C 550.47 494.79 553.34 484.90 559.30 476.31 C 565.27 467.71 571.52 462.70 580.23 457.23 C 588.94 451.76 603.25 449.46 614.00 451.00
M 480.00 594.00 
C 473.96 599.01 469.12 603.46 462.25 607.25 C 455.39 611.05 444.49 613.79 436.98 610.02 C 429.46 606.26 424.15 602.59 420.08 594.92 C 416.00 587.26 419.22 577.16 420.93 568.93 C 422.63 560.69 424.78 551.19 426.93 542.93 C 429.07 534.66 430.85 525.47 433.33 517.33 C 435.81 509.18 437.29 500.97 439.98 492.98 C 442.66 484.98 440.44 474.23 449.68 470.68 C 458.92 467.13 466.24 466.48 476.22 468.78 C 486.20 471.08 488.27 478.64 484.22 487.22 C 480.17 495.80 480.34 502.25 476.68 510.68 C 473.02 519.11 472.15 525.55 468.22 534.22 C 464.30 542.90 464.87 548.58 460.07 558.07 C 455.28 567.57 461.87 573.87 469.75 566.75 C 477.62 559.62 479.91 557.97 485.30 550.30 C 490.69 542.63 490.63 534.74 493.32 526.32 C 496.02 517.91 498.12 510.61 499.99 501.99 C 501.86 493.37 506.81 486.24 506.99 476.99 C 507.17 467.75 514.59 460.53 524.00 462.00 C 533.42 463.47 542.94 461.49 549.75 468.25 C 556.55 475.02 547.37 483.53 546.22 491.22 C 545.08 498.92 539.87 507.07 538.07 515.07 C 536.28 523.08 531.87 530.84 530.22 539.22 C 528.58 547.60 524.47 554.17 523.07 563.07 C 521.68 571.98 516.15 578.80 517.00 589.00 C 517.85 599.20 510.23 605.19 500.33 604.33 C 490.43 603.47 478.84 607.77 480.00 594.00
M 1172.00 611.00 
C 1203.90 616.18 1196.59 666.72 1164.00 662.00 C 1131.41 657.28 1140.68 605.91 1172.00 611.00 Z"/>
</g>
<g fill="None" fill-opacity="0.0" stroke="#1C1C1C" stroke-opacity="1.00" stroke-width="0.3"><path d="
M 1020.00 449.00 
C 1017.43 458.71 1014.46 467.75 1011.32 477.32 C 1008.18 486.89 1006.36 496.93 1003.78 506.78 C 1001.20 516.62 999.46 527.58 999.00 538.00 C 998.54 548.42 999.80 559.76 1010.31 563.69 C 1020.81 567.63 1032.56 566.39 1042.78 563.78 C 1052.99 561.16 1058.67 558.66 1067.25 552.25 C 1075.82 545.84 1074.75 535.39 1069.75 526.25 C 1064.76 517.11 1047.83 534.05 1042.26 526.74 C 1036.68 519.44 1044.17 504.78 1045.22 496.22 C 1046.27 487.67 1051.01 475.92 1053.02 467.02 C 1055.04 458.13 1056.32 445.32 1064.93 441.93 C 1073.53 438.53 1086.09 440.05 1092.92 433.92 C 1099.75 427.79 1104.55 418.60 1103.98 408.02 C 1103.41 397.45 1088.22 400.28 1078.01 403.01 C 1067.80 405.74 1073.10 392.92 1077.22 384.22 C 1081.35 375.52 1085.16 367.96 1087.67 357.67 C 1090.18 347.38 1071.25 344.21 1064.00 347.00 C 1056.75 349.79 1039.24 345.51 1037.78 356.78 C 1036.32 368.04 1035.31 377.61 1031.78 387.78 C 1028.24 397.94 1025.17 405.43 1024.00 416.00
C 1015.65 419.15 1002.72 416.71 995.70 422.70 C 988.68 428.69 983.90 432.49 979.00 440.00
C 985.10 430.77 976.80 420.20 967.00 421.00 C 957.20 421.80 942.12 418.22 936.32 427.32 C 930.53 436.43 935.07 450.01 931.93 459.93 C 928.79 469.85 928.19 480.12 924.99 489.99 C 921.80 499.86 921.69 509.42 918.33 519.33 C 914.96 529.24 916.01 540.04 912.00 550.00 C 907.99 559.95 912.38 571.96 923.00 572.00 C 933.62 572.04 947.17 572.77 950.67 562.67 C 954.17 552.57 951.57 541.10 955.67 531.67 C 959.78 522.24 960.06 511.68 963.68 502.68 C 967.30 493.68 971.00 486.28 977.08 479.08 C 983.17 471.89 988.66 466.60 995.75 460.75 C 1002.84 454.91 1010.71 449.68 1020.00 449.00 Z"/>
</g>
<g fill="None" fill-opacity="0.0" stroke="#1C1C1C" stroke-opacity="1.00" stroke-width="0.3"><path d="
M 1232.00 351.00 
C 1217.81 348.97 1199.86 351.84 1187.68 356.68 C 1175.49 361.52 1167.45 366.99 1158.25 376.25 C 1149.05 385.51 1143.83 393.46 1138.31 405.31 C 1132.78 417.15 1129.69 431.21 1129.00 445.00 C 1128.31 458.79 1129.95 477.42 1132.67 490.33 C 1135.40 503.24 1138.71 517.28 1143.02 528.98 C 1147.34 540.67 1150.06 555.29 1155.68 565.32 C 1161.30 575.36 1162.17 592.13 1171.75 598.24 C 1181.34 604.36 1190.88 585.52 1199.25 580.25 C 1207.62 574.98 1215.26 562.49 1223.25 555.25 C 1231.23 548.01 1239.01 537.90 1246.25 529.25 C 1253.48 520.59 1261.19 511.51 1267.75 501.75 C 1274.30 491.98 1280.52 482.09 1286.03 471.03 C 1291.53 459.96 1294.92 444.66 1296.01 432.01 C 1297.10 419.36 1294.68 403.16 1288.77 392.23 C 1282.86 381.30 1276.24 372.83 1266.23 365.77 C 1256.22 358.71 1243.72 352.67 1232.00 351.00
M 1222.00 393.00 
C 1253.71 398.15 1262.14 438.98 1242.75 461.75 C 1223.37 484.52 1183.66 481.62 1173.07 451.93 C 1162.49 422.23 1191.53 388.05 1222.00 393.00 Z"/>
</g>
<g fill="None" fill-opacity="0.0" stroke="#1C1C1C" stroke-opacity="1.00" stroke-width="0.3"><path d="
M 817.00 383.00 
C 809.39 381.76 784.44 380.37 784.00 392.00 C 783.56 403.63 783.22 415.10 779.33 426.33 C 775.43 437.55 775.03 449.56 771.93 460.93 C 768.83 472.30 767.00 482.50 764.00 494.00 C 761.00 505.49 759.70 516.64 756.33 528.33 C 752.95 540.02 752.33 549.56 748.98 561.98 C 745.62 574.39 749.38 581.49 762.99 585.01 C 776.60 588.52 789.08 584.91 788.67 570.67 C 788.26 556.43 794.46 549.54 796.00 537.00 C 797.55 524.47 800.64 513.85 803.07 502.07 C 805.51 490.29 808.51 480.71 811.22 469.22 C 813.93 457.73 817.01 448.01 820.68 436.68 C 824.35 425.34 826.02 417.66 831.02 406.02 C 836.03 394.39 829.33 385.00 817.00 383.00 Z"/>
</g>
<g fill="None" fill-opacity="0.0" stroke="#F9F9F9" stroke-opacity="1.00" stroke-width="0.3"><path d="
M 1222.00 393.00 
C 1191.53 388.05 1162.49 422.23 1173.07 451.93 C 1183.66 481.62 1223.37 484.52 1242.75 461.75 C 1262.14 438.98 1253.71 398.15 1222.00 393.00 Z"/>
</g>
<g fill="None" fill-opacity="0.0" stroke="#1C1C1C" stroke-opacity="1.00" stroke-width="0.3"><path d="
M 729.00 395.00 
C 718.47 393.73 703.59 393.99 695.25 400.25 C 686.91 406.50 687.02 417.40 682.98 425.98 C 678.93 434.55 675.02 444.26 670.93 452.93 C 666.83 461.59 663.44 470.68 659.31 479.31 C 655.17 487.93 651.68 497.13 647.77 505.77 C 643.86 514.41 639.22 524.17 635.78 532.78 C 632.33 541.38 626.75 550.94 624.31 559.31 C 621.86 567.67 611.14 579.22 617.25 586.75 C 623.36 594.28 635.24 597.36 645.00 597.00 C 654.75 596.64 657.57 583.11 660.07 574.07 C 662.58 565.03 667.80 553.46 679.00 554.00 C 690.20 554.54 706.45 547.72 705.00 560.00 C 703.55 572.28 703.05 588.08 712.78 591.22 C 722.50 594.36 738.81 596.80 743.22 587.22 C 747.63 577.64 742.44 561.89 745.00 551.00 C 747.56 540.11 745.63 525.33 747.01 514.01 C 748.39 502.68 749.56 490.33 750.00 479.00 C 750.44 467.67 752.42 453.38 752.67 442.67 C 752.92 431.96 756.77 416.58 754.92 407.08 C 753.08 397.57 735.54 395.79 729.00 395.00
M 715.00 450.00 
C 709.06 470.81 709.40 493.27 707.00 515.00
C 699.18 515.00 692.03 517.76 684.00 517.00
C 691.35 493.99 703.98 470.42 715.00 450.00 Z"/>
</g>
<g fill="None" fill-opacity="0.0" stroke="#717171" stroke-opacity="1.00" stroke-width="0.3"><path d="
M 378.00 409.00 
C 382.67 409.00 387.33 409.00 392.00 409.00
C 387.66 408.58 382.40 408.57 378.00 409.00 Z"/>
</g>
<g fill="None" fill-opacity="0.0" stroke="#1C1C1C" stroke-opacity="1.00" stroke-width="0.3"><path d="
M 392.00 409.00 
C 387.33 409.00 382.67 409.00 378.00 409.00
C 364.86 408.54 353.20 411.60 340.67 413.67 C 328.15 415.74 320.44 418.56 307.68 421.68 C 294.91 424.80 293.28 433.13 290.78 445.78 C 288.28 458.43 296.23 468.31 310.00 460.00
C 298.57 503.59 282.29 545.87 273.00 590.00
C 246.78 586.65 245.88 631.64 269.00 632.00 C 292.12 632.36 314.68 626.57 334.98 619.98 C 355.27 613.38 370.07 606.48 386.75 593.75 C 403.44 581.03 412.02 568.02 420.07 549.07 C 428.13 530.13 415.04 503.64 391.00 507.00
C 410.94 491.82 429.55 482.97 437.22 456.22 C 444.90 429.48 418.09 409.00 392.00 409.00
M 338.00 496.00 
C 340.54 489.76 342.18 483.06 344.93 476.93 C 347.67 470.79 349.29 462.95 351.93 456.93 C 354.57 450.90 365.77 451.21 371.00 450.00 C 376.23 448.80 390.36 445.12 394.22 449.78 C 398.09 454.44 388.28 461.30 385.25 465.25 C 382.21 469.19 375.57 474.83 371.25 478.25 C 366.94 481.68 361.14 486.31 355.92 488.92 C 350.70 491.53 343.98 497.74 338.00 496.00
M 378.00 534.00 
C 392.59 536.09 385.92 548.41 376.75 554.75 C 367.58 561.09 361.73 566.24 350.92 570.92 C 340.12 575.61 333.25 579.26 320.32 582.32 C 307.39 585.38 317.91 570.54 319.93 559.93 C 321.94 549.32 326.30 537.78 339.67 537.67 C 353.04 537.56 364.01 532.00 378.00 534.00 Z"/>
</g>
<g fill="None" fill-opacity="0.0" stroke="#1C1C1C" stroke-opacity="1.00" stroke-width="0.3"><path d="
M 845.00 528.00 
C 857.19 528.52 871.26 525.03 881.92 520.92 C 892.59 516.81 898.88 511.06 906.75 502.75 C 914.62 494.44 918.85 484.13 921.07 473.07 C 923.29 462.01 921.99 447.89 913.25 439.75 C 904.50 431.61 890.52 430.33 879.01 431.01 C 867.50 431.68 857.32 437.72 848.75 444.75 C 840.19 451.79 835.40 459.25 828.77 467.77 C 822.14 476.29 817.39 484.63 812.92 494.92 C 808.46 505.22 804.86 519.11 805.00 531.00 C 805.14 542.89 803.84 558.11 811.75 567.25 C 819.67 576.39 829.40 581.50 841.00 582.00 C 852.60 582.50 866.46 578.89 876.77 574.77 C 887.08 570.65 895.05 566.04 903.25 558.25 C 911.44 550.46 901.78 528.73 889.68 534.68 C 877.57 540.63 873.32 542.75 860.67 548.67 C 848.03 554.60 836.50 541.04 845.00 528.00
M 887.00 462.00 
C 894.74 464.79 884.60 482.05 880.75 486.75 C 876.89 491.44 863.19 503.58 856.00 500.00 C 848.81 496.42 861.58 483.24 864.77 477.77 C 867.96 472.30 879.17 459.19 887.00 462.00 Z"/>
</g>
<g fill="None" fill-opacity="0.0" stroke="#F8F8F8" stroke-opacity="1.00" stroke-width="0.3"><path d="
M 338.00 496.00 
C 343.98 497.74 350.70 491.53 355.92 488.92 C 361.14 486.31 366.94 481.68 371.25 478.25 C 375.57 474.83 382.21 469.19 385.25 465.25 C 388.28 461.30 398.09 454.44 394.22 449.78 C 390.36 445.12 376.23 448.80 371.00 450.00 C 365.77 451.21 354.57 450.90 351.93 456.93 C 349.29 462.95 347.67 470.79 344.93 476.93 C 342.18 483.06 340.54 489.76 338.00 496.00 Z"/>
</g>
<g fill="None" fill-opacity="0.0" stroke="#F6F6F6" stroke-opacity="1.00" stroke-width="0.3"><path d="
M 715.00 450.00 
C 703.98 470.42 691.35 493.99 684.00 517.00
C 692.03 517.76 699.18 515.00 707.00 515.00
C 709.40 493.27 709.06 470.81 715.00 450.00 Z"/>
</g>
<g fill="None" fill-opacity="0.0" stroke="#1B1B1B" stroke-opacity="1.00" stroke-width="0.3"><path d="
M 614.00 451.00 
C 603.25 449.46 588.94 451.76 580.23 457.23 C 571.52 462.70 565.27 467.71 559.30 476.31 C 553.34 484.90 550.47 494.79 548.33 505.33 C 546.19 515.87 551.68 525.05 559.25 532.75 C 566.81 540.45 572.63 542.58 580.08 551.92 C 587.53 561.26 568.40 571.50 563.25 562.75 C 558.11 553.99 549.73 543.07 540.75 549.75 C 531.77 556.44 529.53 565.06 527.00 576.00 C 524.47 586.94 536.28 594.05 545.93 597.07 C 555.58 600.09 569.59 603.06 579.93 599.93 C 590.26 596.80 597.24 592.44 605.25 585.25 C 613.26 578.05 618.11 570.52 620.00 560.00 C 621.89 549.48 616.23 538.64 609.92 531.08 C 603.61 523.52 597.09 517.22 591.75 509.25 C 586.42 501.27 590.16 487.36 600.93 483.93 C 611.70 480.49 597.56 503.13 607.98 506.02 C 618.39 508.91 634.49 507.75 637.22 497.22 C 639.95 486.70 645.17 472.84 640.30 463.70 C 635.44 454.55 622.30 452.19 614.00 451.00 Z"/>
</g>
<g fill="None" fill-opacity="0.0" stroke="#1C1C1C" stroke-opacity="1.00" stroke-width="0.3"><path d="
M 480.00 594.00 
C 478.84 607.77 490.43 603.47 500.33 604.33 C 510.23 605.19 517.85 599.20 517.00 589.00 C 516.15 578.80 521.68 571.98 523.07 563.07 C 524.47 554.17 528.58 547.60 530.22 539.22 C 531.87 530.84 536.28 523.08 538.07 515.07 C 539.87 507.07 545.08 498.92 546.22 491.22 C 547.37 483.53 556.55 475.02 549.75 468.25 C 542.94 461.49 533.42 463.47 524.00 462.00 C 514.59 460.53 507.17 467.75 506.99 476.99 C 506.81 486.24 501.86 493.37 499.99 501.99 C 498.12 510.61 496.02 517.91 493.32 526.32 C 490.63 534.74 490.69 542.63 485.30 550.30 C 479.91 557.97 477.62 559.62 469.75 566.75 C 461.87 573.87 455.28 567.57 460.07 558.07 C 464.87 548.58 464.30 542.90 468.22 534.22 C 472.15 525.55 473.02 519.11 476.68 510.68 C 480.34 502.25 480.17 495.80 484.22 487.22 C 488.27 478.64 486.20 471.08 476.22 468.78 C 466.24 466.48 458.92 467.13 449.68 470.68 C 440.44 474.23 442.66 484.98 439.98 492.98 C 437.29 500.97 435.81 509.18 433.33 517.33 C 430.85 525.47 429.07 534.66 426.93 542.93 C 424.78 551.19 422.63 560.69 420.93 568.93 C 419.22 577.16 416.00 587.26 420.08 594.92 C 424.15 602.59 429.46 606.26 436.98 610.02 C 444.49 613.79 455.39 611.05 462.25 607.25 C 469.12 603.46 473.96 599.01 480.00 594.00 Z"/>
</g>
<g fill="None" fill-opacity="0.0" stroke="#F8F8F8" stroke-opacity="1.00" stroke-width="0.3"><path d="
M 887.00 462.00 
C 879.17 459.19 867.96 472.30 864.77 477.77 C 861.58 483.24 848.81 496.42 856.00 500.00 C 863.19 503.58 876.89 491.44 880.75 486.75 C 884.60 482.05 894.74 464.79 887.00 462.00 Z"/>
</g>
<g fill="None" fill-opacity="0.0" stroke="#F8F8F8" stroke-opacity="1.00" stroke-width="0.3"><path d="
M 378.00 534.00 
C 364.01 532.00 353.04 537.56 339.67 537.67 C 326.30 537.78 321.94 549.32 319.93 559.93 C 317.91 570.54 307.39 585.38 320.32 582.32 C 333.25 579.26 340.12 575.61 350.92 570.92 C 361.73 566.24 367.58 561.09 376.75 554.75 C 385.92 548.41 392.59 536.09 378.00 534.00 Z"/>
</g>
<g fill="None" fill-opacity="0.0" stroke="#1B1B1B" stroke-opacity="1.00" stroke-width="0.3"><path d="
M 1172.00 611.00 
C 1140.68 605.91 1131.41 657.28 1164.00 662.00 C 1196.59 666.72 1203.90 616.18 1172.00 611.00 Z"/>
</g>
<g fill="#FEFEFE" fill-opacity="1.00" stroke="None">
<path d="
M 0.00 1024.00 
L 1536.00 1024.00
L 1536.00 0.00
L 0.00 0.00
L 0.00 1024.00
M 1020.00 449.00 
C 1010.71 449.68 1002.84 454.91 995.75 460.75 C 988.66 466.60 983.17 471.89 977.08 479.08 C 971.00 486.28 967.30 493.68 963.68 502.68 C 960.06 511.68 959.78 522.24 955.67 531.67 C 951.57 541.10 954.17 552.57 950.67 562.67 C 947.17 572.77 933.62 572.04 923.00 572.00 C 912.38 571.96 907.99 559.95 912.00 550.00 C 916.01 540.04 914.96 529.24 918.33 519.33 C 921.69 509.42 921.80 499.86 924.99 489.99 C 928.19 480.12 928.79 469.85 931.93 459.93 C 935.07 450.01 930.53 436.43 936.32 427.32 C 942.12 418.22 957.20 421.80 967.00 421.00 C 976.80 420.20 985.10 430.77 978.34 439.68
C 983.90 432.49 988.68 428.69 995.70 422.70 C 1002.72 416.71 1015.65 419.15 1024.00 416.00
C 1025.17 405.43 1028.24 397.94 1031.78 387.78 C 1035.31 377.61 1036.32 368.04 1037.78 356.78 C 1039.24 345.51 1056.75 349.79 1064.00 347.00 C 1071.25 344.21 1090.18 347.38 1087.67 357.67 C 1085.16 367.96 1081.35 375.52 1077.22 384.22 C 1073.10 392.92 1067.80 405.74 1078.01 403.01 C 1088.22 400.28 1103.41 397.45 1103.98 408.02 C 1104.55 418.60 1099.75 427.79 1092.92 433.92 C 1086.09 440.05 1073.53 438.53 1064.93 441.93 C 1056.32 445.32 1055.04 458.13 1053.02 467.02 C 1051.01 475.92 1046.27 487.67 1045.22 496.22 C 1044.17 504.78 1036.68 519.44 1042.26 526.74 C 1047.83 534.05 1064.76 517.11 1069.75 526.25 C 1074.75 535.39 1075.82 545.84 1067.25 552.25 C 1058.67 558.66 1052.99 561.16 1042.78 563.78 C 1032.56 566.39 1020.81 567.63 1010.31 563.69 C 999.80 559.76 998.54 548.42 999.00 538.00 C 999.46 527.58 1001.20 516.62 1003.78 506.78 C 1006.36 496.93 1008.18 486.89 1011.32 477.32 C 1014.46 467.75 1017.43 458.71 1020.00 449.00
M 1232.00 351.00 
C 1243.72 352.67 1256.22 358.71 1266.23 365.77 C 1276.24 372.83 1282.86 381.30 1288.77 392.23 C 1294.68 403.16 1297.10 419.36 1296.01 432.01 C 1294.92 444.66 1291.53 459.96 1286.03 471.03 C 1280.52 482.09 1274.30 491.98 1267.75 501.75 C 1261.19 511.51 1253.48 520.59 1246.25 529.25 C 1239.01 537.90 1231.23 548.01 1223.25 555.25 C 1215.26 562.49 1207.62 574.98 1199.25 580.25 C 1190.88 585.52 1181.34 604.36 1171.75 598.24 C 1162.17 592.13 1161.30 575.36 1155.68 565.32 C 1150.06 555.29 1147.34 540.67 1143.02 528.98 C 1138.71 517.28 1135.40 503.24 1132.67 490.33 C 1129.95 477.42 1128.31 458.79 1129.00 445.00 C 1129.69 431.21 1132.78 417.15 1138.31 405.31 C 1143.83 393.46 1149.05 385.51 1158.25 376.25 C 1167.45 366.99 1175.49 361.52 1187.68 356.68 C 1199.86 351.84 1217.81 348.97 1232.00 351.00
M 817.00 383.00 
C 829.33 385.00 836.03 394.39 831.02 406.02 C 826.02 417.66 824.35 425.34 820.68 436.68 C 817.01 448.01 813.93 457.73 811.22 469.22 C 808.51 480.71 805.51 490.29 803.07 502.07 C 800.64 513.85 797.55 524.47 796.00 537.00 C 794.46 549.54 788.26 556.43 788.67 570.67 C 789.08 584.91 776.60 588.52 762.99 585.01 C 749.38 581.49 745.62 574.39 748.98 561.98 C 752.33 549.56 752.95 540.02 756.33 528.33 C 759.70 516.64 761.00 505.49 764.00 494.00 C 767.00 482.50 768.83 472.30 771.93 460.93 C 775.03 449.56 775.43 437.55 779.33 426.33 C 783.22 415.10 783.56 403.63 784.00 392.00 C 784.44 380.37 809.39 381.76 817.00 383.00
M 729.00 395.00 
C 735.54 395.79 753.08 397.57 754.92 407.08 C 756.77 416.58 752.92 431.96 752.67 442.67 C 752.42 453.38 750.44 467.67 750.00 479.00 C 749.56 490.33 748.39 502.68 747.01 514.01 C 745.63 525.33 747.56 540.11 745.00 551.00 C 742.44 561.89 747.63 577.64 743.22 587.22 C 738.81 596.80 722.50 594.36 712.78 591.22 C 703.05 588.08 703.55 572.28 705.00 560.00 C 706.45 547.72 690.20 554.54 679.00 554.00 C 667.80 553.46 662.58 565.03 660.07 574.07 C 657.57 583.11 654.75 596.64 645.00 597.00 C 635.24 597.36 623.36 594.28 617.25 586.75 C 611.14 579.22 621.86 567.67 624.31 559.31 C 626.75 550.94 632.33 541.38 635.78 532.78 C 639.22 524.17 643.86 514.41 647.77 505.77 C 651.68 497.13 655.17 487.93 659.31 479.31 C 663.44 470.68 666.83 461.59 670.93 452.93 C 675.02 444.26 678.93 434.55 682.98 425.98 C 687.02 417.40 686.91 406.50 695.25 400.25 C 703.59 393.99 718.47 393.73 729.00 395.00
M 392.00 409.00 
C 418.09 409.00 444.90 429.48 437.22 456.22 C 429.55 482.97 410.94 491.82 391.00 507.00
C 415.04 503.64 428.13 530.13 420.07 549.07 C 412.02 568.02 403.44 581.03 386.75 593.75 C 370.07 606.48 355.27 613.38 334.98 619.98 C 314.68 626.57 292.12 632.36 269.00 632.00 C 245.88 631.64 246.78 586.65 273.00 590.00
C 282.29 545.87 298.57 503.59 310.00 460.00
C 296.23 468.31 288.28 458.43 290.78 445.78 C 293.28 433.13 294.91 424.80 307.68 421.68 C 320.44 418.56 328.15 415.74 340.67 413.67 C 353.20 411.60 364.86 408.54 378.00 409.00
C 382.40 408.57 387.66 408.58 392.00 409.00
M 845.00 528.00 
C 836.50 541.04 848.03 554.60 860.67 548.67 C 873.32 542.75 877.57 540.63 889.68 534.68 C 901.78 528.73 911.44 550.46 903.25 558.25 C 895.05 566.04 887.08 570.65 876.77 574.77 C 866.46 578.89 852.60 582.50 841.00 582.00 C 829.40 581.50 819.67 576.39 811.75 567.25 C 803.84 558.11 805.14 542.89 805.00 531.00 C 804.86 519.11 808.46 505.22 812.92 494.92 C 817.39 484.63 822.14 476.29 828.77 467.77 C 835.40 459.25 840.19 451.79 848.75 444.75 C 857.32 437.72 867.50 431.68 879.01 431.01 C 890.52 430.33 904.50 431.61 913.25 439.75 C 921.99 447.89 923.29 462.01 921.07 473.07 C 918.85 484.13 914.62 494.44 906.75 502.75 C 898.88 511.06 892.59 516.81 881.92 520.92 C 871.26 525.03 857.19 528.52 845.00 528.00
M 614.00 451.00 
C 622.30 452.19 635.44 454.55 640.30 463.70 C 645.17 472.84 639.95 486.70 637.22 497.22 C 634.49 507.75 618.39 508.91 607.98 506.02 C 597.56 503.13 611.70 480.49 600.93 483.93 C 590.16 487.36 586.42 501.27 591.75 509.25 C 597.09 517.22 603.61 523.52 609.92 531.08 C 616.23 538.64 621.89 549.48 620.00 560.00 C 618.11 570.52 613.26 578.05 605.25 585.25 C 597.24 592.44 590.26 596.80 579.93 599.93 C 569.59 603.06 555.58 600.09 545.93 597.07 C 536.28 594.05 524.47 586.94 527.00 576.00 C 529.53 565.06 531.77 556.44 540.75 549.75 C 549.73 543.07 558.11 553.99 563.25 562.75 C 568.40 571.50 587.53 561.26 580.08 551.92 C 572.63 542.58 566.81 540.45 559.25 532.75 C 551.68 525.05 546.19 515.87 548.33 505.33 C 550.47 494.79 553.34 484.90 559.30 476.31 C 565.27 467.71 571.52 462.70 580.23 457.23 C 588.94 451.76 603.25 449.46 614.00 451.00
M 480.00 594.00 
C 473.96 599.01 469.12 603.46 462.25 607.25 C 455.39 611.05 444.49 613.79 436.98 610.02 C 429.46 606.26 424.15 602.59 420.08 594.92 C 416.00 587.26 419.22 577.16 420.93 568.93 C 422.63 560.69 424.78 551.19 426.93 542.93 C 429.07 534.66 430.85 525.47 433.33 517.33 C 435.81 509.18 437.29 500.97 439.98 492.98 C 442.66 484.98 440.44 474.23 449.68 470.68 C 458.92 467.13 466.24 466.48 476.22 468.78 C 486.20 471.08 488.27 478.64 484.22 487.22 C 480.17 495.80 480.34 502.25 476.68 510.68 C 473.02 519.11 472.15 525.55 468.22 534.22 C 464.30 542.90 464.87 548.58 460.07 558.07 C 455.28 567.57 461.87 573.87 469.75 566.75 C 477.62 559.62 479.91 557.97 485.30 550.30 C 490.69 542.63 490.63 534.74 493.32 526.32 C 496.02 517.91 498.12 510.61 499.99 501.99 C 501.86 493.37 506.81 486.24 506.99 476.99 C 507.17 467.75 514.59 460.53 524.00 462.00 C 533.42 463.47 542.94 461.49 549.75 468.25 C 556.55 475.02 547.37 483.53 546.22 491.22 C 545.08 498.92 539.87 507.07 538.07 515.07 C 536.28 523.08 531.87 530.84 530.22 539.22 C 528.58 547.60 524.47 554.17 523.07 563.07 C 521.68 571.98 516.15 578.80 517.00 589.00 C 517.85 599.20 510.23 605.19 500.33 604.33 C 490.43 603.47 478.84 607.77 480.00 594.00
M 1172.00 611.00 
C 1203.90 616.18 1196.59 666.72 1164.00 662.00 C 1131.41 657.28 1140.68 605.91 1172.00 611.00 Z"/>
</g>
<g fill="#1C1C1C" fill-opacity="1.00" stroke="None">
<path d="
M 1020.00 449.00 
C 1017.43 458.71 1014.46 467.75 1011.32 477.32 C 1008.18 486.89 1006.36 496.93 1003.78 506.78 C 1001.20 516.62 999.46 527.58 999.00 538.00 C 998.54 548.42 999.80 559.76 1010.31 563.69 C 1020.81 567.63 1032.56 566.39 1042.78 563.78 C 1052.99 561.16 1058.67 558.66 1067.25 552.25 C 1075.82 545.84 1074.75 535.39 1069.75 526.25 C 1064.76 517.11 1047.83 534.05 1042.26 526.74 C 1036.68 519.44 1044.17 504.78 1045.22 496.22 C 1046.27 487.67 1051.01 475.92 1053.02 467.02 C 1055.04 458.13 1056.32 445.32 1064.93 441.93 C 1073.53 438.53 1086.09 440.05 1092.92 433.92 C 1099.75 427.79 1104.55 418.60 1103.98 408.02 C 1103.41 397.45 1088.22 400.28 1078.01 403.01 C 1067.80 405.74 1073.10 392.92 1077.22 384.22 C 1081.35 375.52 1085.16 367.96 1087.67 357.67 C 1090.18 347.38 1071.25 344.21 1064.00 347.00 C 1056.75 349.79 1039.24 345.51 1037.78 356.78 C 1036.32 368.04 1035.31 377.61 1031.78 387.78 C 1028.24 397.94 1025.17 405.43 1024.00 416.00
C 1015.65 419.15 1002.72 416.71 995.70 422.70 C 988.68 428.69 983.90 432.49 979.00 440.00
C 985.10 430.77 976.80 420.20 967.00 421.00 C 957.20 421.80 942.12 418.22 936.32 427.32 C 930.53 436.43 935.07 450.01 931.93 459.93 C 928.79 469.85 928.19 480.12 924.99 489.99 C 921.80 499.86 921.69 509.42 918.33 519.33 C 914.96 529.24 916.01 540.04 912.00 550.00 C 907.99 559.95 912.38 571.96 923.00 572.00 C 933.62 572.04 947.17 572.77 950.67 562.67 C 954.17 552.57 951.57 541.10 955.67 531.67 C 959.78 522.24 960.06 511.68 963.68 502.68 C 967.30 493.68 971.00 486.28 977.08 479.08 C 983.17 471.89 988.66 466.60 995.75 460.75 C 1002.84 454.91 1010.71 449.68 1020.00 449.00 Z"/>
</g>
<g fill="#1C1C1C" fill-opacity="1.00" stroke="None">
<path d="
M 1232.00 351.00 
C 1217.81 348.97 1199.86 351.84 1187.68 356.68 C 1175.49 361.52 1167.45 366.99 1158.25 376.25 C 1149.05 385.51 1143.83 393.46 1138.31 405.31 C 1132.78 417.15 1129.69 431.21 1129.00 445.00 C 1128.31 458.79 1129.95 477.42 1132.67 490.33 C 1135.40 503.24 1138.71 517.28 1143.02 528.98 C 1147.34 540.67 1150.06 555.29 1155.68 565.32 C 1161.30 575.36 1162.17 592.13 1171.75 598.24 C 1181.34 604.36 1190.88 585.52 1199.25 580.25 C 1207.62 574.98 1215.26 562.49 1223.25 555.25 C 1231.23 548.01 1239.01 537.90 1246.25 529.25 C 1253.48 520.59 1261.19 511.51 1267.75 501.75 C 1274.30 491.98 1280.52 482.09 1286.03 471.03 C 1291.53 459.96 1294.92 444.66 1296.01 432.01 C 1297.10 419.36 1294.68 403.16 1288.77 392.23 C 1282.86 381.30 1276.24 372.83 1266.23 365.77 C 1256.22 358.71 1243.72 352.67 1232.00 351.00
M 1222.00 393.00 
C 1253.71 398.15 1262.14 438.98 1242.75 461.75 C 1223.37 484.52 1183.66 481.62 1173.07 451.93 C 1162.49 422.23 1191.53 388.05 1222.00 393.00 Z"/>
</g>
<g fill="#1C1C1C" fill-opacity="1.00" stroke="None">
<path d="
M 817.00 383.00 
C 809.39 381.76 784.44 380.37 784.00 392.00 C 783.56 403.63 783.22 415.10 779.33 426.33 C 775.43 437.55 775.03 449.56 771.93 460.93 C 768.83 472.30 767.00 482.50 764.00 494.00 C 761.00 505.49 759.70 516.64 756.33 528.33 C 752.95 540.02 752.33 549.56 748.98 561.98 C 745.62 574.39 749.38 581.49 762.99 585.01 C 776.60 588.52 789.08 584.91 788.67 570.67 C 788.26 556.43 794.46 549.54 796.00 537.00 C 797.55 524.47 800.64 513.85 803.07 502.07 C 805.51 490.29 808.51 480.71 811.22 469.22 C 813.93 457.73 817.01 448.01 820.68 436.68 C 824.35 425.34 826.02 417.66 831.02 406.02 C 836.03 394.39 829.33 385.00 817.00 383.00 Z"/>
</g>
<g fill="#F9F9F9" fill-opacity="1.00" stroke="None">
<path d="
M 1222.00 393.00 
C 1191.53 388.05 1162.49 422.23 1173.07 451.93 C 1183.66 481.62 1223.37 484.52 1242.75 461.75 C 1262.14 438.98 1253.71 398.15 1222.00 393.00 Z"/>
</g>
<g fill="#1C1C1C" fill-opacity="1.00" stroke="None">
<path d="
M 729.00 395.00 
C 718.47 393.73 703.59 393.99 695.25 400.25 C 686.91 406.50 687.02 417.40 682.98 425.98 C 678.93 434.55 675.02 444.26 670.93 452.93 C 666.83 461.59 663.44 470.68 659.31 479.31 C 655.17 487.93 651.68 497.13 647.77 505.77 C 643.86 514.41 639.22 524.17 635.78 532.78 C 632.33 541.38 626.75 550.94 624.31 559.31 C 621.86 567.67 611.14 579.22 617.25 586.75 C 623.36 594.28 635.24 597.36 645.00 597.00 C 654.75 596.64 657.57 583.11 660.07 574.07 C 662.58 565.03 667.80 553.46 679.00 554.00 C 690.20 554.54 706.45 547.72 705.00 560.00 C 703.55 572.28 703.05 588.08 712.78 591.22 C 722.50 594.36 738.81 596.80 743.22 587.22 C 747.63 577.64 742.44 561.89 745.00 551.00 C 747.56 540.11 745.63 525.33 747.01 514.01 C 748.39 502.68 749.56 490.33 750.00 479.00 C 750.44 467.67 752.42 453.38 752.67 442.67 C 752.92 431.96 756.77 416.58 754.92 407.08 C 753.08 397.57 735.54 395.79 729.00 395.00
M 715.00 450.00 
C 709.06 470.81 709.40 493.27 707.00 515.00
C 699.18 515.00 692.03 517.76 684.00 517.00
C 691.35 493.99 703.98 470.42 715.00 450.00 Z"/>
</g>
<g fill="#717171" fill-opacity="1.00" stroke="None">
<path d="
M 378.00 409.00 
C 382.67 409.00 387.33 409.00 392.00 409.00
C 387.66 408.58 382.40 408.57 378.00 409.00 Z"/>
</g>
<g fill="#1C1C1C" fill-opacity="1.00" stroke="None">
<path d="
M 392.00 409.00 
C 387.33 409.00 382.67 409.00 378.00 409.00
C 364.86 408.54 353.20 411.60 340.67 413.67 C 328.15 415.74 320.44 418.56 307.68 421.68 C 294.91 424.80 293.28 433.13 290.78 445.78 C 288.28 458.43 296.23 468.31 310.00 460.00
C 298.57 503.59 282.29 545.87 273.00 590.00
C 246.78 586.65 245.88 631.64 269.00 632.00 C 292.12 632.36 314.68 626.57 334.98 619.98 C 355.27 613.38 370.07 606.48 386.75 593.75 C 403.44 581.03 412.02 568.02 420.07 549.07 C 428.13 530.13 415.04 503.64 391.00 507.00
C 410.94 491.82 429.55 482.97 437.22 456.22 C 444.90 429.48 418.09 409.00 392.00 409.00
M 338.00 496.00 
C 340.54 489.76 342.18 483.06 344.93 476.93 C 347.67 470.79 349.29 462.95 351.93 456.93 C 354.57 450.90 365.77 451.21 371.00 450.00 C 376.23 448.80 390.36 445.12 394.22 449.78 C 398.09 454.44 388.28 461.30 385.25 465.25 C 382.21 469.19 375.57 474.83 371.25 478.25 C 366.94 481.68 361.14 486.31 355.92 488.92 C 350.70 491.53 343.98 497.74 338.00 496.00
M 378.00 534.00 
C 392.59 536.09 385.92 548.41 376.75 554.75 C 367.58 561.09 361.73 566.24 350.92 570.92 C 340.12 575.61 333.25 579.26 320.32 582.32 C 307.39 585.38 317.91 570.54 319.93 559.93 C 321.94 549.32 326.30 537.78 339.67 537.67 C 353.04 537.56 364.01 532.00 378.00 534.00 Z"/>
</g>
<g fill="#1C1C1C" fill-opacity="1.00" stroke="None">
<path d="
M 845.00 528.00 
C 857.19 528.52 871.26 525.03 881.92 520.92 C 892.59 516.81 898.88 511.06 906.75 502.75 C 914.62 494.44 918.85 484.13 921.07 473.07 C 923.29 462.01 921.99 447.89 913.25 439.75 C 904.50 431.61 890.52 430.33 879.01 431.01 C 867.50 431.68 857.32 437.72 848.75 444.75 C 840.19 451.79 835.40 459.25 828.77 467.77 C 822.14 476.29 817.39 484.63 812.92 494.92 C 808.46 505.22 804.86 519.11 805.00 531.00 C 805.14 542.89 803.84 558.11 811.75 567.25 C 819.67 576.39 829.40 581.50 841.00 582.00 C 852.60 582.50 866.46 578.89 876.77 574.77 C 887.08 570.65 895.05 566.04 903.25 558.25 C 911.44 550.46 901.78 528.73 889.68 534.68 C 877.57 540.63 873.32 542.75 860.67 548.67 C 848.03 554.60 836.50 541.04 845.00 528.00
M 887.00 462.00 
C 894.74 464.79 884.60 482.05 880.75 486.75 C 876.89 491.44 863.19 503.58 856.00 500.00 C 848.81 496.42 861.58 483.24 864.77 477.77 C 867.96 472.30 879.17 459.19 887.00 462.00 Z"/>
</g>
<g fill="#F8F8F8" fill-opacity="1.00" stroke="None">
<path d="
M 338.00 496.00 
C 343.98 497.74 350.70 491.53 355.92 488.92 C 361.14 486.31 366.94 481.68 371.25 478.25 C 375.57 474.83 382.21 469.19 385.25 465.25 C 388.28 461.30 398.09 454.44 394.22 449.78 C 390.36 445.12 376.23 448.80 371.00 450.00 C 365.77 451.21 354.57 450.90 351.93 456.93 C 349.29 462.95 347.67 470.79 344.93 476.93 C 342.18 483.06 340.54 489.76 338.00 496.00 Z"/>
</g>
<g fill="#F6F6F6" fill-opacity="1.00" stroke="None">
<path d="
M 715.00 450.00 
C 703.98 470.42 691.35 493.99 684.00 517.00
C 692.03 517.76 699.18 515.00 707.00 515.00
C 709.40 493.27 709.06 470.81 715.00 450.00 Z"/>
</g>
<g fill="#1B1B1B" fill-opacity="1.00" stroke="None">
<path d="
M 614.00 451.00 
C 603.25 449.46 588.94 451.76 580.23 457.23 C 571.52 462.70 565.27 467.71 559.30 476.31 C 553.34 484.90 550.47 494.79 548.33 505.33 C 546.19 515.87 551.68 525.05 559.25 532.75 C 566.81 540.45 572.63 542.58 580.08 551.92 C 587.53 561.26 568.40 571.50 563.25 562.75 C 558.11 553.99 549.73 543.07 540.75 549.75 C 531.77 556.44 529.53 565.06 527.00 576.00 C 524.47 586.94 536.28 594.05 545.93 597.07 C 555.58 600.09 569.59 603.06 579.93 599.93 C 590.26 596.80 597.24 592.44 605.25 585.25 C 613.26 578.05 618.11 570.52 620.00 560.00 C 621.89 549.48 616.23 538.64 609.92 531.08 C 603.61 523.52 597.09 517.22 591.75 509.25 C 586.42 501.27 590.16 487.36 600.93 483.93 C 611.70 480.49 597.56 503.13 607.98 506.02 C 618.39 508.91 634.49 507.75 637.22 497.22 C 639.95 486.70 645.17 472.84 640.30 463.70 C 635.44 454.55 622.30 452.19 614.00 451.00 Z"/>
</g>
<g fill="#1C1C1C" fill-opacity="1.00" stroke="None">
<path d="
M 480.00 594.00 
C 478.84 607.77 490.43 603.47 500.33 604.33 C 510.23 605.19 517.85 599.20 517.00 589.00 C 516.15 578.80 521.68 571.98 523.07 563.07 C 524.47 554.17 528.58 547.60 530.22 539.22 C 531.87 530.84 536.28 523.08 538.07 515.07 C 539.87 507.07 545.08 498.92 546.22 491.22 C 547.37 483.53 556.55 475.02 549.75 468.25 C 542.94 461.49 533.42 463.47 524.00 462.00 C 514.59 460.53 507.17 467.75 506.99 476.99 C 506.81 486.24 501.86 493.37 499.99 501.99 C 498.12 510.61 496.02 517.91 493.32 526.32 C 490.63 534.74 490.69 542.63 485.30 550.30 C 479.91 557.97 477.62 559.62 469.75 566.75 C 461.87 573.87 455.28 567.57 460.07 558.07 C 464.87 548.58 464.30 542.90 468.22 534.22 C 472.15 525.55 473.02 519.11 476.68 510.68 C 480.34 502.25 480.17 495.80 484.22 487.22 C 488.27 478.64 486.20 471.08 476.22 468.78 C 466.24 466.48 458.92 467.13 449.68 470.68 C 440.44 474.23 442.66 484.98 439.98 492.98 C 437.29 500.97 435.81 509.18 433.33 517.33 C 430.85 525.47 429.07 534.66 426.93 542.93 C 424.78 551.19 422.63 560.69 420.93 568.93 C 419.22 577.16 416.00 587.26 420.08 594.92 C 424.15 602.59 429.46 606.26 436.98 610.02 C 444.49 613.79 455.39 611.05 462.25 607.25 C 469.12 603.46 473.96 599.01 480.00 594.00 Z"/>
</g>
<g fill="#F8F8F8" fill-opacity="1.00" stroke="None">
<path d="
M 887.00 462.00 
C 879.17 459.19 867.96 472.30 864.77 477.77 C 861.58 483.24 848.81 496.42 856.00 500.00 C 863.19 503.58 876.89 491.44 880.75 486.75 C 884.60 482.05 894.74 464.79 887.00 462.00 Z"/>
</g>
<g fill="#F8F8F8" fill-opacity="1.00" stroke="None">
<path d="
M 378.00 534.00 
C 364.01 532.00 353.04 537.56 339.67 537.67 C 326.30 537.78 321.94 549.32 319.93 559.93 C 317.91 570.54 307.39 585.38 320.32 582.32 C 333.25 579.26 340.12 575.61 350.92 570.92 C 361.73 566.24 367.58 561.09 376.75 554.75 C 385.92 548.41 392.59 536.09 378.00 534.00 Z"/>
</g>
<g fill="#1B1B1B" fill-opacity="1.00" stroke="None">
<path d="
M 1172.00 611.00 
C 1140.68 605.91 1131.41 657.28 1164.00 662.00 C 1196.59 666.72 1203.90 616.18 1172.00 611.00 Z"/>
</g>
</svg>